%FSLAX45Y45*%
G04 Gerber Fmt 4.5, Leading zero omitted, Abs format (unit mm)*
G04 Created by KiCad (PCBNEW 5.1.6-c6e7f7d~87~ubuntu20.04.1) date 2020-10-08 01:49:55*
%MOMM*%
%LPD*%
G01*
G04 APERTURE LIST*
%TA.AperFunction,Profile*%
%ADD10C,0.050000*%
%TD*%
%ADD11C,0.200000*%
%ADD12C,0.300000*%
G04 APERTURE END LIST*
D10*
X19500000Y-3500000D02*
X1400000Y-3500000D01*
X19500000Y-9700000D02*
X19500000Y-3500000D01*
X1400000Y-9700000D02*
X19500000Y-9700000D01*
X1400000Y-3500000D02*
X1400000Y-9700000D01*
D11*
X9790000Y-9190000D02*
X10010000Y-9410000D01*
X10010000Y-9190000D02*
X9790000Y-9410000D01*
X18940000Y-9140000D02*
X19160000Y-9360000D01*
X19160000Y-9140000D02*
X18940000Y-9360000D01*
X8730000Y-5420000D02*
G75*
G03*
X8730000Y-5420000I-120000J0D01*
G01*
D12*
X1683928Y-10168214D02*
X1683928Y-9868214D01*
X1755357Y-9868214D01*
X1798214Y-9882500D01*
X1826786Y-9911072D01*
X1841071Y-9939643D01*
X1855357Y-9996786D01*
X1855357Y-10039643D01*
X1841071Y-10096786D01*
X1826786Y-10125357D01*
X1798214Y-10153929D01*
X1755357Y-10168214D01*
X1683928Y-10168214D01*
X1983928Y-10168214D02*
X1983928Y-9968214D01*
X1983928Y-10025357D02*
X1998214Y-9996786D01*
X2012500Y-9982500D01*
X2041071Y-9968214D01*
X2069643Y-9968214D01*
X2169643Y-10168214D02*
X2169643Y-9968214D01*
X2169643Y-9868214D02*
X2155357Y-9882500D01*
X2169643Y-9896786D01*
X2183928Y-9882500D01*
X2169643Y-9868214D01*
X2169643Y-9896786D01*
X2355357Y-10168214D02*
X2326786Y-10153929D01*
X2312500Y-10125357D01*
X2312500Y-9868214D01*
X2512500Y-10168214D02*
X2483928Y-10153929D01*
X2469643Y-10125357D01*
X2469643Y-9868214D01*
X2855357Y-10168214D02*
X2855357Y-9868214D01*
X2955357Y-10082500D01*
X3055357Y-9868214D01*
X3055357Y-10168214D01*
X3326786Y-10168214D02*
X3326786Y-10011072D01*
X3312500Y-9982500D01*
X3283928Y-9968214D01*
X3226786Y-9968214D01*
X3198214Y-9982500D01*
X3326786Y-10153929D02*
X3298214Y-10168214D01*
X3226786Y-10168214D01*
X3198214Y-10153929D01*
X3183928Y-10125357D01*
X3183928Y-10096786D01*
X3198214Y-10068214D01*
X3226786Y-10053929D01*
X3298214Y-10053929D01*
X3326786Y-10039643D01*
X3469643Y-9968214D02*
X3469643Y-10268214D01*
X3469643Y-9982500D02*
X3498214Y-9968214D01*
X3555357Y-9968214D01*
X3583928Y-9982500D01*
X3598214Y-9996786D01*
X3612500Y-10025357D01*
X3612500Y-10111072D01*
X3598214Y-10139643D01*
X3583928Y-10153929D01*
X3555357Y-10168214D01*
X3498214Y-10168214D01*
X3469643Y-10153929D01*
X3741071Y-10139643D02*
X3755357Y-10153929D01*
X3741071Y-10168214D01*
X3726786Y-10153929D01*
X3741071Y-10139643D01*
X3741071Y-10168214D01*
X3741071Y-9982500D02*
X3755357Y-9996786D01*
X3741071Y-10011072D01*
X3726786Y-9996786D01*
X3741071Y-9982500D01*
X3741071Y-10011072D01*
X1177500Y-10552500D02*
X1397500Y-10772500D01*
X1397500Y-10552500D02*
X1177500Y-10772500D01*
X1669643Y-10526786D02*
X1683928Y-10512500D01*
X1712500Y-10498214D01*
X1783928Y-10498214D01*
X1812500Y-10512500D01*
X1826786Y-10526786D01*
X1841071Y-10555357D01*
X1841071Y-10583929D01*
X1826786Y-10626786D01*
X1655357Y-10798214D01*
X1841071Y-10798214D01*
X1969643Y-10769643D02*
X1983928Y-10783929D01*
X1969643Y-10798214D01*
X1955357Y-10783929D01*
X1969643Y-10769643D01*
X1969643Y-10798214D01*
X2098214Y-10526786D02*
X2112500Y-10512500D01*
X2141071Y-10498214D01*
X2212500Y-10498214D01*
X2241071Y-10512500D01*
X2255357Y-10526786D01*
X2269643Y-10555357D01*
X2269643Y-10583929D01*
X2255357Y-10626786D01*
X2083928Y-10798214D01*
X2269643Y-10798214D01*
X2455357Y-10498214D02*
X2483928Y-10498214D01*
X2512500Y-10512500D01*
X2526786Y-10526786D01*
X2541071Y-10555357D01*
X2555357Y-10612500D01*
X2555357Y-10683929D01*
X2541071Y-10741072D01*
X2526786Y-10769643D01*
X2512500Y-10783929D01*
X2483928Y-10798214D01*
X2455357Y-10798214D01*
X2426786Y-10783929D01*
X2412500Y-10769643D01*
X2398214Y-10741072D01*
X2383928Y-10683929D01*
X2383928Y-10612500D01*
X2398214Y-10555357D01*
X2412500Y-10526786D01*
X2426786Y-10512500D01*
X2455357Y-10498214D01*
X2683928Y-10798214D02*
X2683928Y-10598214D01*
X2683928Y-10626786D02*
X2698214Y-10612500D01*
X2726786Y-10598214D01*
X2769643Y-10598214D01*
X2798214Y-10612500D01*
X2812500Y-10641072D01*
X2812500Y-10798214D01*
X2812500Y-10641072D02*
X2826786Y-10612500D01*
X2855357Y-10598214D01*
X2898214Y-10598214D01*
X2926786Y-10612500D01*
X2941071Y-10641072D01*
X2941071Y-10798214D01*
X3083928Y-10798214D02*
X3083928Y-10598214D01*
X3083928Y-10626786D02*
X3098214Y-10612500D01*
X3126786Y-10598214D01*
X3169643Y-10598214D01*
X3198214Y-10612500D01*
X3212500Y-10641072D01*
X3212500Y-10798214D01*
X3212500Y-10641072D02*
X3226786Y-10612500D01*
X3255357Y-10598214D01*
X3298214Y-10598214D01*
X3326786Y-10612500D01*
X3341071Y-10641072D01*
X3341071Y-10798214D01*
X3926786Y-10483929D02*
X3669643Y-10869643D01*
X4312500Y-10498214D02*
X4341071Y-10498214D01*
X4369643Y-10512500D01*
X4383928Y-10526786D01*
X4398214Y-10555357D01*
X4412500Y-10612500D01*
X4412500Y-10683929D01*
X4398214Y-10741072D01*
X4383928Y-10769643D01*
X4369643Y-10783929D01*
X4341071Y-10798214D01*
X4312500Y-10798214D01*
X4283928Y-10783929D01*
X4269643Y-10769643D01*
X4255357Y-10741072D01*
X4241071Y-10683929D01*
X4241071Y-10612500D01*
X4255357Y-10555357D01*
X4269643Y-10526786D01*
X4283928Y-10512500D01*
X4312500Y-10498214D01*
X4541071Y-10769643D02*
X4555357Y-10783929D01*
X4541071Y-10798214D01*
X4526786Y-10783929D01*
X4541071Y-10769643D01*
X4541071Y-10798214D01*
X4741071Y-10498214D02*
X4769643Y-10498214D01*
X4798214Y-10512500D01*
X4812500Y-10526786D01*
X4826786Y-10555357D01*
X4841071Y-10612500D01*
X4841071Y-10683929D01*
X4826786Y-10741072D01*
X4812500Y-10769643D01*
X4798214Y-10783929D01*
X4769643Y-10798214D01*
X4741071Y-10798214D01*
X4712500Y-10783929D01*
X4698214Y-10769643D01*
X4683928Y-10741072D01*
X4669643Y-10683929D01*
X4669643Y-10612500D01*
X4683928Y-10555357D01*
X4698214Y-10526786D01*
X4712500Y-10512500D01*
X4741071Y-10498214D01*
X5012500Y-10626786D02*
X4983928Y-10612500D01*
X4969643Y-10598214D01*
X4955357Y-10569643D01*
X4955357Y-10555357D01*
X4969643Y-10526786D01*
X4983928Y-10512500D01*
X5012500Y-10498214D01*
X5069643Y-10498214D01*
X5098214Y-10512500D01*
X5112500Y-10526786D01*
X5126786Y-10555357D01*
X5126786Y-10569643D01*
X5112500Y-10598214D01*
X5098214Y-10612500D01*
X5069643Y-10626786D01*
X5012500Y-10626786D01*
X4983928Y-10641072D01*
X4969643Y-10655357D01*
X4955357Y-10683929D01*
X4955357Y-10741072D01*
X4969643Y-10769643D01*
X4983928Y-10783929D01*
X5012500Y-10798214D01*
X5069643Y-10798214D01*
X5098214Y-10783929D01*
X5112500Y-10769643D01*
X5126786Y-10741072D01*
X5126786Y-10683929D01*
X5112500Y-10655357D01*
X5098214Y-10641072D01*
X5069643Y-10626786D01*
X5226786Y-10498214D02*
X5426786Y-10498214D01*
X5298214Y-10798214D01*
X5526786Y-10498214D02*
X5526786Y-10555357D01*
X5641071Y-10498214D02*
X5641071Y-10555357D01*
X6083928Y-10912500D02*
X6069643Y-10898214D01*
X6041071Y-10855357D01*
X6026786Y-10826786D01*
X6012500Y-10783929D01*
X5998214Y-10712500D01*
X5998214Y-10655357D01*
X6012500Y-10583929D01*
X6026786Y-10541072D01*
X6041071Y-10512500D01*
X6069643Y-10469643D01*
X6083928Y-10455357D01*
X6183928Y-10526786D02*
X6198214Y-10512500D01*
X6226786Y-10498214D01*
X6298214Y-10498214D01*
X6326786Y-10512500D01*
X6341071Y-10526786D01*
X6355357Y-10555357D01*
X6355357Y-10583929D01*
X6341071Y-10626786D01*
X6169643Y-10798214D01*
X6355357Y-10798214D01*
X6712500Y-10798214D02*
X6712500Y-10498214D01*
X6841071Y-10798214D02*
X6841071Y-10641072D01*
X6826786Y-10612500D01*
X6798214Y-10598214D01*
X6755357Y-10598214D01*
X6726786Y-10612500D01*
X6712500Y-10626786D01*
X7026786Y-10798214D02*
X6998214Y-10783929D01*
X6983928Y-10769643D01*
X6969643Y-10741072D01*
X6969643Y-10655357D01*
X6983928Y-10626786D01*
X6998214Y-10612500D01*
X7026786Y-10598214D01*
X7069643Y-10598214D01*
X7098214Y-10612500D01*
X7112500Y-10626786D01*
X7126786Y-10655357D01*
X7126786Y-10741072D01*
X7112500Y-10769643D01*
X7098214Y-10783929D01*
X7069643Y-10798214D01*
X7026786Y-10798214D01*
X7298214Y-10798214D02*
X7269643Y-10783929D01*
X7255357Y-10755357D01*
X7255357Y-10498214D01*
X7526786Y-10783929D02*
X7498214Y-10798214D01*
X7441071Y-10798214D01*
X7412500Y-10783929D01*
X7398214Y-10755357D01*
X7398214Y-10641072D01*
X7412500Y-10612500D01*
X7441071Y-10598214D01*
X7498214Y-10598214D01*
X7526786Y-10612500D01*
X7541071Y-10641072D01*
X7541071Y-10669643D01*
X7398214Y-10698214D01*
X7655357Y-10783929D02*
X7683928Y-10798214D01*
X7741071Y-10798214D01*
X7769643Y-10783929D01*
X7783928Y-10755357D01*
X7783928Y-10741072D01*
X7769643Y-10712500D01*
X7741071Y-10698214D01*
X7698214Y-10698214D01*
X7669643Y-10683929D01*
X7655357Y-10655357D01*
X7655357Y-10641072D01*
X7669643Y-10612500D01*
X7698214Y-10598214D01*
X7741071Y-10598214D01*
X7769643Y-10612500D01*
X7883928Y-10912500D02*
X7898214Y-10898214D01*
X7926786Y-10855357D01*
X7941071Y-10826786D01*
X7955357Y-10783929D01*
X7969643Y-10712500D01*
X7969643Y-10655357D01*
X7955357Y-10583929D01*
X7941071Y-10541072D01*
X7926786Y-10512500D01*
X7898214Y-10469643D01*
X7883928Y-10455357D01*
X8426786Y-10912500D02*
X8412500Y-10898214D01*
X8383928Y-10855357D01*
X8369643Y-10826786D01*
X8355357Y-10783929D01*
X8341071Y-10712500D01*
X8341071Y-10655357D01*
X8355357Y-10583929D01*
X8369643Y-10541072D01*
X8383928Y-10512500D01*
X8412500Y-10469643D01*
X8426786Y-10455357D01*
X8541071Y-10598214D02*
X8541071Y-10798214D01*
X8541071Y-10626786D02*
X8555357Y-10612500D01*
X8583928Y-10598214D01*
X8626786Y-10598214D01*
X8655357Y-10612500D01*
X8669643Y-10641072D01*
X8669643Y-10798214D01*
X8855357Y-10798214D02*
X8826786Y-10783929D01*
X8812500Y-10769643D01*
X8798214Y-10741072D01*
X8798214Y-10655357D01*
X8812500Y-10626786D01*
X8826786Y-10612500D01*
X8855357Y-10598214D01*
X8898214Y-10598214D01*
X8926786Y-10612500D01*
X8941071Y-10626786D01*
X8955357Y-10655357D01*
X8955357Y-10741072D01*
X8941071Y-10769643D01*
X8926786Y-10783929D01*
X8898214Y-10798214D01*
X8855357Y-10798214D01*
X9041071Y-10598214D02*
X9155357Y-10598214D01*
X9083928Y-10498214D02*
X9083928Y-10755357D01*
X9098214Y-10783929D01*
X9126786Y-10798214D01*
X9155357Y-10798214D01*
X9483928Y-10598214D02*
X9483928Y-10898214D01*
X9483928Y-10612500D02*
X9512500Y-10598214D01*
X9569643Y-10598214D01*
X9598214Y-10612500D01*
X9612500Y-10626786D01*
X9626786Y-10655357D01*
X9626786Y-10741072D01*
X9612500Y-10769643D01*
X9598214Y-10783929D01*
X9569643Y-10798214D01*
X9512500Y-10798214D01*
X9483928Y-10783929D01*
X9798214Y-10798214D02*
X9769643Y-10783929D01*
X9755357Y-10755357D01*
X9755357Y-10498214D01*
X10041071Y-10798214D02*
X10041071Y-10641072D01*
X10026786Y-10612500D01*
X9998214Y-10598214D01*
X9941071Y-10598214D01*
X9912500Y-10612500D01*
X10041071Y-10783929D02*
X10012500Y-10798214D01*
X9941071Y-10798214D01*
X9912500Y-10783929D01*
X9898214Y-10755357D01*
X9898214Y-10726786D01*
X9912500Y-10698214D01*
X9941071Y-10683929D01*
X10012500Y-10683929D01*
X10041071Y-10669643D01*
X10141071Y-10598214D02*
X10255357Y-10598214D01*
X10183928Y-10498214D02*
X10183928Y-10755357D01*
X10198214Y-10783929D01*
X10226786Y-10798214D01*
X10255357Y-10798214D01*
X10469643Y-10783929D02*
X10441071Y-10798214D01*
X10383928Y-10798214D01*
X10355357Y-10783929D01*
X10341071Y-10755357D01*
X10341071Y-10641072D01*
X10355357Y-10612500D01*
X10383928Y-10598214D01*
X10441071Y-10598214D01*
X10469643Y-10612500D01*
X10483928Y-10641072D01*
X10483928Y-10669643D01*
X10341071Y-10698214D01*
X10741071Y-10798214D02*
X10741071Y-10498214D01*
X10741071Y-10783929D02*
X10712500Y-10798214D01*
X10655357Y-10798214D01*
X10626786Y-10783929D01*
X10612500Y-10769643D01*
X10598214Y-10741072D01*
X10598214Y-10655357D01*
X10612500Y-10626786D01*
X10626786Y-10612500D01*
X10655357Y-10598214D01*
X10712500Y-10598214D01*
X10741071Y-10612500D01*
X10855357Y-10912500D02*
X10869643Y-10898214D01*
X10898214Y-10855357D01*
X10912500Y-10826786D01*
X10926786Y-10783929D01*
X10941071Y-10712500D01*
X10941071Y-10655357D01*
X10926786Y-10583929D01*
X10912500Y-10541072D01*
X10898214Y-10512500D01*
X10869643Y-10469643D01*
X10855357Y-10455357D01*
X1397500Y-11058500D02*
G75*
G03*
X1397500Y-11058500I-120000J0D01*
G01*
X1669643Y-10922786D02*
X1683928Y-10908500D01*
X1712500Y-10894214D01*
X1783928Y-10894214D01*
X1812500Y-10908500D01*
X1826786Y-10922786D01*
X1841071Y-10951357D01*
X1841071Y-10979929D01*
X1826786Y-11022786D01*
X1655357Y-11194214D01*
X1841071Y-11194214D01*
X1969643Y-11165643D02*
X1983928Y-11179929D01*
X1969643Y-11194214D01*
X1955357Y-11179929D01*
X1969643Y-11165643D01*
X1969643Y-11194214D01*
X2241071Y-10994214D02*
X2241071Y-11194214D01*
X2169643Y-10879929D02*
X2098214Y-11094214D01*
X2283928Y-11094214D01*
X2455357Y-10894214D02*
X2483928Y-10894214D01*
X2512500Y-10908500D01*
X2526786Y-10922786D01*
X2541071Y-10951357D01*
X2555357Y-11008500D01*
X2555357Y-11079929D01*
X2541071Y-11137072D01*
X2526786Y-11165643D01*
X2512500Y-11179929D01*
X2483928Y-11194214D01*
X2455357Y-11194214D01*
X2426786Y-11179929D01*
X2412500Y-11165643D01*
X2398214Y-11137072D01*
X2383928Y-11079929D01*
X2383928Y-11008500D01*
X2398214Y-10951357D01*
X2412500Y-10922786D01*
X2426786Y-10908500D01*
X2455357Y-10894214D01*
X2683928Y-11194214D02*
X2683928Y-10994214D01*
X2683928Y-11022786D02*
X2698214Y-11008500D01*
X2726786Y-10994214D01*
X2769643Y-10994214D01*
X2798214Y-11008500D01*
X2812500Y-11037072D01*
X2812500Y-11194214D01*
X2812500Y-11037072D02*
X2826786Y-11008500D01*
X2855357Y-10994214D01*
X2898214Y-10994214D01*
X2926786Y-11008500D01*
X2941071Y-11037072D01*
X2941071Y-11194214D01*
X3083928Y-11194214D02*
X3083928Y-10994214D01*
X3083928Y-11022786D02*
X3098214Y-11008500D01*
X3126786Y-10994214D01*
X3169643Y-10994214D01*
X3198214Y-11008500D01*
X3212500Y-11037072D01*
X3212500Y-11194214D01*
X3212500Y-11037072D02*
X3226786Y-11008500D01*
X3255357Y-10994214D01*
X3298214Y-10994214D01*
X3326786Y-11008500D01*
X3341071Y-11037072D01*
X3341071Y-11194214D01*
X3926786Y-10879929D02*
X3669643Y-11265643D01*
X4312500Y-10894214D02*
X4341071Y-10894214D01*
X4369643Y-10908500D01*
X4383928Y-10922786D01*
X4398214Y-10951357D01*
X4412500Y-11008500D01*
X4412500Y-11079929D01*
X4398214Y-11137072D01*
X4383928Y-11165643D01*
X4369643Y-11179929D01*
X4341071Y-11194214D01*
X4312500Y-11194214D01*
X4283928Y-11179929D01*
X4269643Y-11165643D01*
X4255357Y-11137072D01*
X4241071Y-11079929D01*
X4241071Y-11008500D01*
X4255357Y-10951357D01*
X4269643Y-10922786D01*
X4283928Y-10908500D01*
X4312500Y-10894214D01*
X4541071Y-11165643D02*
X4555357Y-11179929D01*
X4541071Y-11194214D01*
X4526786Y-11179929D01*
X4541071Y-11165643D01*
X4541071Y-11194214D01*
X4741071Y-10894214D02*
X4769643Y-10894214D01*
X4798214Y-10908500D01*
X4812500Y-10922786D01*
X4826786Y-10951357D01*
X4841071Y-11008500D01*
X4841071Y-11079929D01*
X4826786Y-11137072D01*
X4812500Y-11165643D01*
X4798214Y-11179929D01*
X4769643Y-11194214D01*
X4741071Y-11194214D01*
X4712500Y-11179929D01*
X4698214Y-11165643D01*
X4683928Y-11137072D01*
X4669643Y-11079929D01*
X4669643Y-11008500D01*
X4683928Y-10951357D01*
X4698214Y-10922786D01*
X4712500Y-10908500D01*
X4741071Y-10894214D01*
X4983928Y-11194214D02*
X5041071Y-11194214D01*
X5069643Y-11179929D01*
X5083928Y-11165643D01*
X5112500Y-11122786D01*
X5126786Y-11065643D01*
X5126786Y-10951357D01*
X5112500Y-10922786D01*
X5098214Y-10908500D01*
X5069643Y-10894214D01*
X5012500Y-10894214D01*
X4983928Y-10908500D01*
X4969643Y-10922786D01*
X4955357Y-10951357D01*
X4955357Y-11022786D01*
X4969643Y-11051357D01*
X4983928Y-11065643D01*
X5012500Y-11079929D01*
X5069643Y-11079929D01*
X5098214Y-11065643D01*
X5112500Y-11051357D01*
X5126786Y-11022786D01*
X5383928Y-10994214D02*
X5383928Y-11194214D01*
X5312500Y-10879929D02*
X5241071Y-11094214D01*
X5426786Y-11094214D01*
X5526786Y-10894214D02*
X5526786Y-10951357D01*
X5641071Y-10894214D02*
X5641071Y-10951357D01*
X6083928Y-11308500D02*
X6069643Y-11294214D01*
X6041071Y-11251357D01*
X6026786Y-11222786D01*
X6012500Y-11179929D01*
X5998214Y-11108500D01*
X5998214Y-11051357D01*
X6012500Y-10979929D01*
X6026786Y-10937072D01*
X6041071Y-10908500D01*
X6069643Y-10865643D01*
X6083928Y-10851357D01*
X6355357Y-11194214D02*
X6183928Y-11194214D01*
X6269643Y-11194214D02*
X6269643Y-10894214D01*
X6241071Y-10937072D01*
X6212500Y-10965643D01*
X6183928Y-10979929D01*
X6712500Y-11194214D02*
X6712500Y-10894214D01*
X6841071Y-11194214D02*
X6841071Y-11037072D01*
X6826786Y-11008500D01*
X6798214Y-10994214D01*
X6755357Y-10994214D01*
X6726786Y-11008500D01*
X6712500Y-11022786D01*
X7026786Y-11194214D02*
X6998214Y-11179929D01*
X6983928Y-11165643D01*
X6969643Y-11137072D01*
X6969643Y-11051357D01*
X6983928Y-11022786D01*
X6998214Y-11008500D01*
X7026786Y-10994214D01*
X7069643Y-10994214D01*
X7098214Y-11008500D01*
X7112500Y-11022786D01*
X7126786Y-11051357D01*
X7126786Y-11137072D01*
X7112500Y-11165643D01*
X7098214Y-11179929D01*
X7069643Y-11194214D01*
X7026786Y-11194214D01*
X7298214Y-11194214D02*
X7269643Y-11179929D01*
X7255357Y-11151357D01*
X7255357Y-10894214D01*
X7526786Y-11179929D02*
X7498214Y-11194214D01*
X7441071Y-11194214D01*
X7412500Y-11179929D01*
X7398214Y-11151357D01*
X7398214Y-11037072D01*
X7412500Y-11008500D01*
X7441071Y-10994214D01*
X7498214Y-10994214D01*
X7526786Y-11008500D01*
X7541071Y-11037072D01*
X7541071Y-11065643D01*
X7398214Y-11094214D01*
X7641071Y-11308500D02*
X7655357Y-11294214D01*
X7683928Y-11251357D01*
X7698214Y-11222786D01*
X7712500Y-11179929D01*
X7726786Y-11108500D01*
X7726786Y-11051357D01*
X7712500Y-10979929D01*
X7698214Y-10937072D01*
X7683928Y-10908500D01*
X7655357Y-10865643D01*
X7641071Y-10851357D01*
X8183928Y-11308500D02*
X8169643Y-11294214D01*
X8141071Y-11251357D01*
X8126786Y-11222786D01*
X8112500Y-11179929D01*
X8098214Y-11108500D01*
X8098214Y-11051357D01*
X8112500Y-10979929D01*
X8126786Y-10937072D01*
X8141071Y-10908500D01*
X8169643Y-10865643D01*
X8183928Y-10851357D01*
X8298214Y-10994214D02*
X8298214Y-11194214D01*
X8298214Y-11022786D02*
X8312500Y-11008500D01*
X8341071Y-10994214D01*
X8383928Y-10994214D01*
X8412500Y-11008500D01*
X8426786Y-11037072D01*
X8426786Y-11194214D01*
X8612500Y-11194214D02*
X8583928Y-11179929D01*
X8569643Y-11165643D01*
X8555357Y-11137072D01*
X8555357Y-11051357D01*
X8569643Y-11022786D01*
X8583928Y-11008500D01*
X8612500Y-10994214D01*
X8655357Y-10994214D01*
X8683928Y-11008500D01*
X8698214Y-11022786D01*
X8712500Y-11051357D01*
X8712500Y-11137072D01*
X8698214Y-11165643D01*
X8683928Y-11179929D01*
X8655357Y-11194214D01*
X8612500Y-11194214D01*
X8798214Y-10994214D02*
X8912500Y-10994214D01*
X8841071Y-10894214D02*
X8841071Y-11151357D01*
X8855357Y-11179929D01*
X8883928Y-11194214D01*
X8912500Y-11194214D01*
X9241071Y-10994214D02*
X9241071Y-11294214D01*
X9241071Y-11008500D02*
X9269643Y-10994214D01*
X9326786Y-10994214D01*
X9355357Y-11008500D01*
X9369643Y-11022786D01*
X9383928Y-11051357D01*
X9383928Y-11137072D01*
X9369643Y-11165643D01*
X9355357Y-11179929D01*
X9326786Y-11194214D01*
X9269643Y-11194214D01*
X9241071Y-11179929D01*
X9555357Y-11194214D02*
X9526786Y-11179929D01*
X9512500Y-11151357D01*
X9512500Y-10894214D01*
X9798214Y-11194214D02*
X9798214Y-11037072D01*
X9783928Y-11008500D01*
X9755357Y-10994214D01*
X9698214Y-10994214D01*
X9669643Y-11008500D01*
X9798214Y-11179929D02*
X9769643Y-11194214D01*
X9698214Y-11194214D01*
X9669643Y-11179929D01*
X9655357Y-11151357D01*
X9655357Y-11122786D01*
X9669643Y-11094214D01*
X9698214Y-11079929D01*
X9769643Y-11079929D01*
X9798214Y-11065643D01*
X9898214Y-10994214D02*
X10012500Y-10994214D01*
X9941071Y-10894214D02*
X9941071Y-11151357D01*
X9955357Y-11179929D01*
X9983928Y-11194214D01*
X10012500Y-11194214D01*
X10226786Y-11179929D02*
X10198214Y-11194214D01*
X10141071Y-11194214D01*
X10112500Y-11179929D01*
X10098214Y-11151357D01*
X10098214Y-11037072D01*
X10112500Y-11008500D01*
X10141071Y-10994214D01*
X10198214Y-10994214D01*
X10226786Y-11008500D01*
X10241071Y-11037072D01*
X10241071Y-11065643D01*
X10098214Y-11094214D01*
X10498214Y-11194214D02*
X10498214Y-10894214D01*
X10498214Y-11179929D02*
X10469643Y-11194214D01*
X10412500Y-11194214D01*
X10383928Y-11179929D01*
X10369643Y-11165643D01*
X10355357Y-11137072D01*
X10355357Y-11051357D01*
X10369643Y-11022786D01*
X10383928Y-11008500D01*
X10412500Y-10994214D01*
X10469643Y-10994214D01*
X10498214Y-11008500D01*
X10612500Y-11308500D02*
X10626786Y-11294214D01*
X10655357Y-11251357D01*
X10669643Y-11222786D01*
X10683928Y-11179929D01*
X10698214Y-11108500D01*
X10698214Y-11051357D01*
X10683928Y-10979929D01*
X10669643Y-10937072D01*
X10655357Y-10908500D01*
X10626786Y-10865643D01*
X10612500Y-10851357D01*
M02*
