M48
; DRILL file {KiCad 5.1.6-c6e7f7d~87~ubuntu20.04.1} date Sun Oct 11 03:01:41 2020
; FORMAT={-:-/ absolute / metric / decimal}
; #@! TF.CreationDate,2020-10-11T03:01:41+02:00
; #@! TF.GenerationSoftware,Kicad,Pcbnew,5.1.6-c6e7f7d~87~ubuntu20.04.1
; #@! TF.FileFunction,Plated,1,2,PTH
FMAT,2
METRIC
T1C0.400
T2C0.800
T3C1.000
T4C1.100
T5C1.500
T6C1.850
T7C2.000
%
G90
G05
T1
X16.5Y-63.0
X16.5Y-64.5
X16.5Y-66.0
X16.5Y-67.5
X16.5Y-69.0
X18.5Y-45.5
X18.5Y-47.0
X18.5Y-48.5
X18.5Y-50.0
X18.5Y-51.5
X19.0Y-80.58
X19.0Y-82.08
X19.0Y-83.58
X19.0Y-85.08
X19.0Y-86.58
X110.5Y-63.0
X110.5Y-64.5
X110.5Y-66.0
X110.5Y-67.5
X110.5Y-69.0
X111.5Y-45.5
X111.5Y-47.0
X111.5Y-48.5
X111.5Y-50.0
X111.5Y-51.5
X111.5Y-80.5
X111.5Y-82.0
X111.5Y-83.5
X111.5Y-85.0
X111.5Y-86.5
T2
X177.0Y-59.5
X177.0Y-64.5
X86.5Y-67.5
X86.5Y-72.5
X80.5Y-62.0
X80.5Y-64.5
X177.0Y-67.5
X177.0Y-70.0
X86.5Y-62.5
X86.5Y-64.5
X183.0Y-68.5
X183.0Y-70.5
X183.0Y-59.5
X183.0Y-64.5
X80.5Y-67.5
X80.5Y-72.5
T3
X124.5Y-58.5
X124.5Y-66.0
X31.5Y-58.5
X31.5Y-66.0
T4
X98.5Y-64.5
X98.5Y-67.04
X191.0Y-64.5
X191.0Y-67.04
X191.5Y-54.0
X191.5Y-59.08
X99.0Y-53.5
X99.0Y-58.58
T5
X105.0Y-36.0
X105.0Y-42.0
X105.0Y-72.0
X105.0Y-76.0
X105.0Y-56.0
X105.0Y-88.0
X105.0Y-64.0
X105.0Y-48.0
X105.0Y-50.0
X105.0Y-66.0
X105.0Y-38.0
X105.0Y-96.0
X105.0Y-40.0
X105.0Y-74.0
X105.0Y-80.0
X105.0Y-58.0
X105.0Y-44.0
X105.0Y-52.0
X105.0Y-60.0
X105.0Y-84.0
X105.0Y-70.0
X105.0Y-78.0
X105.0Y-90.0
X105.0Y-68.0
X105.0Y-62.0
X105.0Y-54.0
X105.0Y-92.0
X105.0Y-82.0
X105.0Y-94.0
X105.0Y-86.0
X105.0Y-46.0
T6
X138.5Y-66.0
X167.71Y-66.0
X43.5Y-66.0
X72.71Y-66.0
T7
X81.5Y-53.0
X90.7Y-53.0
T0
M30
