%FSLAX45Y45*%
G04 Gerber Fmt 4.5, Leading zero omitted, Abs format (unit mm)*
G04 Created by KiCad (PCBNEW 5.1.6-c6e7f7d~87~ubuntu20.04.1) date 2020-10-11 03:01:40*
%MOMM*%
%LPD*%
G01*
G04 APERTURE LIST*
%TA.AperFunction,Profile*%
%ADD10C,0.050000*%
%TD*%
%ADD11C,0.200000*%
%ADD12C,0.300000*%
G04 APERTURE END LIST*
D10*
X19500000Y-3500000D02*
X1400000Y-3500000D01*
X19500000Y-9700000D02*
X19500000Y-3500000D01*
X1400000Y-9700000D02*
X19500000Y-9700000D01*
X1400000Y-3500000D02*
X1400000Y-9700000D01*
D11*
X1630000Y-6280000D02*
X1670000Y-6320000D01*
X1670000Y-6280000D02*
X1630000Y-6320000D01*
X1630000Y-6430000D02*
X1670000Y-6470000D01*
X1670000Y-6430000D02*
X1630000Y-6470000D01*
X1630000Y-6580000D02*
X1670000Y-6620000D01*
X1670000Y-6580000D02*
X1630000Y-6620000D01*
X1630000Y-6730000D02*
X1670000Y-6770000D01*
X1670000Y-6730000D02*
X1630000Y-6770000D01*
X1630000Y-6880000D02*
X1670000Y-6920000D01*
X1670000Y-6880000D02*
X1630000Y-6920000D01*
X1830000Y-4530000D02*
X1870000Y-4570000D01*
X1870000Y-4530000D02*
X1830000Y-4570000D01*
X1830000Y-4680000D02*
X1870000Y-4720000D01*
X1870000Y-4680000D02*
X1830000Y-4720000D01*
X1830000Y-4830000D02*
X1870000Y-4870000D01*
X1870000Y-4830000D02*
X1830000Y-4870000D01*
X1830000Y-4980000D02*
X1870000Y-5020000D01*
X1870000Y-4980000D02*
X1830000Y-5020000D01*
X1830000Y-5130000D02*
X1870000Y-5170000D01*
X1870000Y-5130000D02*
X1830000Y-5170000D01*
X1880000Y-8038000D02*
X1920000Y-8078000D01*
X1920000Y-8038000D02*
X1880000Y-8078000D01*
X1880000Y-8188000D02*
X1920000Y-8228000D01*
X1920000Y-8188000D02*
X1880000Y-8228000D01*
X1880000Y-8338000D02*
X1920000Y-8378000D01*
X1920000Y-8338000D02*
X1880000Y-8378000D01*
X1880000Y-8488000D02*
X1920000Y-8528000D01*
X1920000Y-8488000D02*
X1880000Y-8528000D01*
X1880000Y-8638000D02*
X1920000Y-8678000D01*
X1920000Y-8638000D02*
X1880000Y-8678000D01*
X11030000Y-6280000D02*
X11070000Y-6320000D01*
X11070000Y-6280000D02*
X11030000Y-6320000D01*
X11030000Y-6430000D02*
X11070000Y-6470000D01*
X11070000Y-6430000D02*
X11030000Y-6470000D01*
X11030000Y-6580000D02*
X11070000Y-6620000D01*
X11070000Y-6580000D02*
X11030000Y-6620000D01*
X11030000Y-6730000D02*
X11070000Y-6770000D01*
X11070000Y-6730000D02*
X11030000Y-6770000D01*
X11030000Y-6880000D02*
X11070000Y-6920000D01*
X11070000Y-6880000D02*
X11030000Y-6920000D01*
X11130000Y-4530000D02*
X11170000Y-4570000D01*
X11170000Y-4530000D02*
X11130000Y-4570000D01*
X11130000Y-4680000D02*
X11170000Y-4720000D01*
X11170000Y-4680000D02*
X11130000Y-4720000D01*
X11130000Y-4830000D02*
X11170000Y-4870000D01*
X11170000Y-4830000D02*
X11130000Y-4870000D01*
X11130000Y-4980000D02*
X11170000Y-5020000D01*
X11170000Y-4980000D02*
X11130000Y-5020000D01*
X11130000Y-5130000D02*
X11170000Y-5170000D01*
X11170000Y-5130000D02*
X11130000Y-5170000D01*
X11130000Y-8030000D02*
X11170000Y-8070000D01*
X11170000Y-8030000D02*
X11130000Y-8070000D01*
X11130000Y-8180000D02*
X11170000Y-8220000D01*
X11170000Y-8180000D02*
X11130000Y-8220000D01*
X11130000Y-8330000D02*
X11170000Y-8370000D01*
X11170000Y-8330000D02*
X11130000Y-8370000D01*
X11130000Y-8480000D02*
X11170000Y-8520000D01*
X11170000Y-8480000D02*
X11130000Y-8520000D01*
X11130000Y-8630000D02*
X11170000Y-8670000D01*
X11170000Y-8630000D02*
X11130000Y-8670000D01*
X17740000Y-5950000D02*
G75*
G03*
X17740000Y-5950000I-40000J0D01*
G01*
X17740000Y-6450000D02*
G75*
G03*
X17740000Y-6450000I-40000J0D01*
G01*
X8690000Y-6750000D02*
G75*
G03*
X8690000Y-6750000I-40000J0D01*
G01*
X8690000Y-7250000D02*
G75*
G03*
X8690000Y-7250000I-40000J0D01*
G01*
X8090000Y-6200000D02*
G75*
G03*
X8090000Y-6200000I-40000J0D01*
G01*
X8090000Y-6450000D02*
G75*
G03*
X8090000Y-6450000I-40000J0D01*
G01*
X17740000Y-6750000D02*
G75*
G03*
X17740000Y-6750000I-40000J0D01*
G01*
X17740000Y-7000000D02*
G75*
G03*
X17740000Y-7000000I-40000J0D01*
G01*
X8690000Y-6250000D02*
G75*
G03*
X8690000Y-6250000I-40000J0D01*
G01*
X8690000Y-6450000D02*
G75*
G03*
X8690000Y-6450000I-40000J0D01*
G01*
X18340000Y-6850000D02*
G75*
G03*
X18340000Y-6850000I-40000J0D01*
G01*
X18340000Y-7050000D02*
G75*
G03*
X18340000Y-7050000I-40000J0D01*
G01*
X18340000Y-5950000D02*
G75*
G03*
X18340000Y-5950000I-40000J0D01*
G01*
X18340000Y-6450000D02*
G75*
G03*
X18340000Y-6450000I-40000J0D01*
G01*
X8090000Y-6750000D02*
G75*
G03*
X8090000Y-6750000I-40000J0D01*
G01*
X8090000Y-7250000D02*
G75*
G03*
X8090000Y-7250000I-40000J0D01*
G01*
X12450000Y-5800000D02*
X12450000Y-5900000D01*
X12400000Y-5850000D02*
X12500000Y-5850000D01*
X12450000Y-6550000D02*
X12450000Y-6650000D01*
X12400000Y-6600000D02*
X12500000Y-6600000D01*
X3150000Y-5800000D02*
X3150000Y-5900000D01*
X3100000Y-5850000D02*
X3200000Y-5850000D01*
X3150000Y-6550000D02*
X3150000Y-6650000D01*
X3100000Y-6600000D02*
X3200000Y-6600000D01*
X9888891Y-6488891D02*
X9888891Y-6411109D01*
X9811109Y-6411109D01*
X9811109Y-6488891D01*
X9888891Y-6488891D01*
X9888891Y-6742891D02*
X9888891Y-6665109D01*
X9811109Y-6665109D01*
X9811109Y-6742891D01*
X9888891Y-6742891D01*
X19138891Y-6488891D02*
X19138891Y-6411109D01*
X19061109Y-6411109D01*
X19061109Y-6488891D01*
X19138891Y-6488891D01*
X19138891Y-6742891D02*
X19138891Y-6665109D01*
X19061109Y-6665109D01*
X19061109Y-6742891D01*
X19138891Y-6742891D01*
X19188891Y-5438891D02*
X19188891Y-5361109D01*
X19111109Y-5361109D01*
X19111109Y-5438891D01*
X19188891Y-5438891D01*
X19188891Y-5946891D02*
X19188891Y-5869109D01*
X19111109Y-5869109D01*
X19111109Y-5946891D01*
X19188891Y-5946891D01*
X9938891Y-5388891D02*
X9938891Y-5311109D01*
X9861109Y-5311109D01*
X9861109Y-5388891D01*
X9938891Y-5388891D01*
X9938891Y-5896891D02*
X9938891Y-5819109D01*
X9861109Y-5819109D01*
X9861109Y-5896891D01*
X9938891Y-5896891D01*
X10500000Y-3675000D02*
X10575000Y-3600000D01*
X10500000Y-3525000D01*
X10425000Y-3600000D01*
X10500000Y-3675000D01*
X10500000Y-4275000D02*
X10575000Y-4200000D01*
X10500000Y-4125000D01*
X10425000Y-4200000D01*
X10500000Y-4275000D01*
X10500000Y-7275000D02*
X10575000Y-7200000D01*
X10500000Y-7125000D01*
X10425000Y-7200000D01*
X10500000Y-7275000D01*
X10500000Y-7675000D02*
X10575000Y-7600000D01*
X10500000Y-7525000D01*
X10425000Y-7600000D01*
X10500000Y-7675000D01*
X10500000Y-5675000D02*
X10575000Y-5600000D01*
X10500000Y-5525000D01*
X10425000Y-5600000D01*
X10500000Y-5675000D01*
X10500000Y-8875000D02*
X10575000Y-8800000D01*
X10500000Y-8725000D01*
X10425000Y-8800000D01*
X10500000Y-8875000D01*
X10500000Y-6475000D02*
X10575000Y-6400000D01*
X10500000Y-6325000D01*
X10425000Y-6400000D01*
X10500000Y-6475000D01*
X10500000Y-4875000D02*
X10575000Y-4800000D01*
X10500000Y-4725000D01*
X10425000Y-4800000D01*
X10500000Y-4875000D01*
X10500000Y-5075000D02*
X10575000Y-5000000D01*
X10500000Y-4925000D01*
X10425000Y-5000000D01*
X10500000Y-5075000D01*
X10500000Y-6675000D02*
X10575000Y-6600000D01*
X10500000Y-6525000D01*
X10425000Y-6600000D01*
X10500000Y-6675000D01*
X10500000Y-3875000D02*
X10575000Y-3800000D01*
X10500000Y-3725000D01*
X10425000Y-3800000D01*
X10500000Y-3875000D01*
X10500000Y-9675000D02*
X10575000Y-9600000D01*
X10500000Y-9525000D01*
X10425000Y-9600000D01*
X10500000Y-9675000D01*
X10500000Y-4075000D02*
X10575000Y-4000000D01*
X10500000Y-3925000D01*
X10425000Y-4000000D01*
X10500000Y-4075000D01*
X10500000Y-7475000D02*
X10575000Y-7400000D01*
X10500000Y-7325000D01*
X10425000Y-7400000D01*
X10500000Y-7475000D01*
X10500000Y-8075000D02*
X10575000Y-8000000D01*
X10500000Y-7925000D01*
X10425000Y-8000000D01*
X10500000Y-8075000D01*
X10500000Y-5875000D02*
X10575000Y-5800000D01*
X10500000Y-5725000D01*
X10425000Y-5800000D01*
X10500000Y-5875000D01*
X10500000Y-4475000D02*
X10575000Y-4400000D01*
X10500000Y-4325000D01*
X10425000Y-4400000D01*
X10500000Y-4475000D01*
X10500000Y-5275000D02*
X10575000Y-5200000D01*
X10500000Y-5125000D01*
X10425000Y-5200000D01*
X10500000Y-5275000D01*
X10500000Y-6075000D02*
X10575000Y-6000000D01*
X10500000Y-5925000D01*
X10425000Y-6000000D01*
X10500000Y-6075000D01*
X10500000Y-8475000D02*
X10575000Y-8400000D01*
X10500000Y-8325000D01*
X10425000Y-8400000D01*
X10500000Y-8475000D01*
X10500000Y-7075000D02*
X10575000Y-7000000D01*
X10500000Y-6925000D01*
X10425000Y-7000000D01*
X10500000Y-7075000D01*
X10500000Y-7875000D02*
X10575000Y-7800000D01*
X10500000Y-7725000D01*
X10425000Y-7800000D01*
X10500000Y-7875000D01*
X10500000Y-9075000D02*
X10575000Y-9000000D01*
X10500000Y-8925000D01*
X10425000Y-9000000D01*
X10500000Y-9075000D01*
X10500000Y-6875000D02*
X10575000Y-6800000D01*
X10500000Y-6725000D01*
X10425000Y-6800000D01*
X10500000Y-6875000D01*
X10500000Y-6275000D02*
X10575000Y-6200000D01*
X10500000Y-6125000D01*
X10425000Y-6200000D01*
X10500000Y-6275000D01*
X10500000Y-5475000D02*
X10575000Y-5400000D01*
X10500000Y-5325000D01*
X10425000Y-5400000D01*
X10500000Y-5475000D01*
X10500000Y-9275000D02*
X10575000Y-9200000D01*
X10500000Y-9125000D01*
X10425000Y-9200000D01*
X10500000Y-9275000D01*
X10500000Y-8275000D02*
X10575000Y-8200000D01*
X10500000Y-8125000D01*
X10425000Y-8200000D01*
X10500000Y-8275000D01*
X10500000Y-9475000D02*
X10575000Y-9400000D01*
X10500000Y-9325000D01*
X10425000Y-9400000D01*
X10500000Y-9475000D01*
X10500000Y-8675000D02*
X10575000Y-8600000D01*
X10500000Y-8525000D01*
X10425000Y-8600000D01*
X10500000Y-8675000D01*
X10500000Y-4675000D02*
X10575000Y-4600000D01*
X10500000Y-4525000D01*
X10425000Y-4600000D01*
X10500000Y-4675000D01*
X13757500Y-6507500D02*
X13942500Y-6692500D01*
X13942500Y-6507500D02*
X13757500Y-6692500D01*
X13942500Y-6600000D02*
G75*
G03*
X13942500Y-6600000I-92500J0D01*
G01*
X16678500Y-6507500D02*
X16863500Y-6692500D01*
X16863500Y-6507500D02*
X16678500Y-6692500D01*
X16863500Y-6600000D02*
G75*
G03*
X16863500Y-6600000I-92500J0D01*
G01*
X4257500Y-6507500D02*
X4442500Y-6692500D01*
X4442500Y-6507500D02*
X4257500Y-6692500D01*
X4442500Y-6600000D02*
G75*
G03*
X4442500Y-6600000I-92500J0D01*
G01*
X7178500Y-6507500D02*
X7363500Y-6692500D01*
X7363500Y-6507500D02*
X7178500Y-6692500D01*
X7363500Y-6600000D02*
G75*
G03*
X7363500Y-6600000I-92500J0D01*
G01*
X8050000Y-5200000D02*
X8250000Y-5400000D01*
X8250000Y-5200000D02*
X8050000Y-5400000D01*
X8150000Y-5200000D02*
X8150000Y-5400000D01*
X8050000Y-5300000D02*
X8250000Y-5300000D01*
X8970000Y-5200000D02*
X9170000Y-5400000D01*
X9170000Y-5200000D02*
X8970000Y-5400000D01*
X9070000Y-5200000D02*
X9070000Y-5400000D01*
X8970000Y-5300000D02*
X9170000Y-5300000D01*
D12*
X1683928Y-10168214D02*
X1683928Y-9868214D01*
X1755357Y-9868214D01*
X1798214Y-9882500D01*
X1826786Y-9911072D01*
X1841071Y-9939643D01*
X1855357Y-9996786D01*
X1855357Y-10039643D01*
X1841071Y-10096786D01*
X1826786Y-10125357D01*
X1798214Y-10153929D01*
X1755357Y-10168214D01*
X1683928Y-10168214D01*
X1983928Y-10168214D02*
X1983928Y-9968214D01*
X1983928Y-10025357D02*
X1998214Y-9996786D01*
X2012500Y-9982500D01*
X2041071Y-9968214D01*
X2069643Y-9968214D01*
X2169643Y-10168214D02*
X2169643Y-9968214D01*
X2169643Y-9868214D02*
X2155357Y-9882500D01*
X2169643Y-9896786D01*
X2183928Y-9882500D01*
X2169643Y-9868214D01*
X2169643Y-9896786D01*
X2355357Y-10168214D02*
X2326786Y-10153929D01*
X2312500Y-10125357D01*
X2312500Y-9868214D01*
X2512500Y-10168214D02*
X2483928Y-10153929D01*
X2469643Y-10125357D01*
X2469643Y-9868214D01*
X2855357Y-10168214D02*
X2855357Y-9868214D01*
X2955357Y-10082500D01*
X3055357Y-9868214D01*
X3055357Y-10168214D01*
X3326786Y-10168214D02*
X3326786Y-10011072D01*
X3312500Y-9982500D01*
X3283928Y-9968214D01*
X3226786Y-9968214D01*
X3198214Y-9982500D01*
X3326786Y-10153929D02*
X3298214Y-10168214D01*
X3226786Y-10168214D01*
X3198214Y-10153929D01*
X3183928Y-10125357D01*
X3183928Y-10096786D01*
X3198214Y-10068214D01*
X3226786Y-10053929D01*
X3298214Y-10053929D01*
X3326786Y-10039643D01*
X3469643Y-9968214D02*
X3469643Y-10268214D01*
X3469643Y-9982500D02*
X3498214Y-9968214D01*
X3555357Y-9968214D01*
X3583928Y-9982500D01*
X3598214Y-9996786D01*
X3612500Y-10025357D01*
X3612500Y-10111072D01*
X3598214Y-10139643D01*
X3583928Y-10153929D01*
X3555357Y-10168214D01*
X3498214Y-10168214D01*
X3469643Y-10153929D01*
X3741071Y-10139643D02*
X3755357Y-10153929D01*
X3741071Y-10168214D01*
X3726786Y-10153929D01*
X3741071Y-10139643D01*
X3741071Y-10168214D01*
X3741071Y-9982500D02*
X3755357Y-9996786D01*
X3741071Y-10011072D01*
X3726786Y-9996786D01*
X3741071Y-9982500D01*
X3741071Y-10011072D01*
X1357500Y-10642500D02*
X1397500Y-10682500D01*
X1397500Y-10642500D02*
X1357500Y-10682500D01*
X1741071Y-10498214D02*
X1769643Y-10498214D01*
X1798214Y-10512500D01*
X1812500Y-10526786D01*
X1826786Y-10555357D01*
X1841071Y-10612500D01*
X1841071Y-10683929D01*
X1826786Y-10741072D01*
X1812500Y-10769643D01*
X1798214Y-10783929D01*
X1769643Y-10798214D01*
X1741071Y-10798214D01*
X1712500Y-10783929D01*
X1698214Y-10769643D01*
X1683928Y-10741072D01*
X1669643Y-10683929D01*
X1669643Y-10612500D01*
X1683928Y-10555357D01*
X1698214Y-10526786D01*
X1712500Y-10512500D01*
X1741071Y-10498214D01*
X1969643Y-10769643D02*
X1983928Y-10783929D01*
X1969643Y-10798214D01*
X1955357Y-10783929D01*
X1969643Y-10769643D01*
X1969643Y-10798214D01*
X2241071Y-10598214D02*
X2241071Y-10798214D01*
X2169643Y-10483929D02*
X2098214Y-10698214D01*
X2283928Y-10698214D01*
X2455357Y-10498214D02*
X2483928Y-10498214D01*
X2512500Y-10512500D01*
X2526786Y-10526786D01*
X2541071Y-10555357D01*
X2555357Y-10612500D01*
X2555357Y-10683929D01*
X2541071Y-10741072D01*
X2526786Y-10769643D01*
X2512500Y-10783929D01*
X2483928Y-10798214D01*
X2455357Y-10798214D01*
X2426786Y-10783929D01*
X2412500Y-10769643D01*
X2398214Y-10741072D01*
X2383928Y-10683929D01*
X2383928Y-10612500D01*
X2398214Y-10555357D01*
X2412500Y-10526786D01*
X2426786Y-10512500D01*
X2455357Y-10498214D01*
X2683928Y-10798214D02*
X2683928Y-10598214D01*
X2683928Y-10626786D02*
X2698214Y-10612500D01*
X2726786Y-10598214D01*
X2769643Y-10598214D01*
X2798214Y-10612500D01*
X2812500Y-10641072D01*
X2812500Y-10798214D01*
X2812500Y-10641072D02*
X2826786Y-10612500D01*
X2855357Y-10598214D01*
X2898214Y-10598214D01*
X2926786Y-10612500D01*
X2941071Y-10641072D01*
X2941071Y-10798214D01*
X3083928Y-10798214D02*
X3083928Y-10598214D01*
X3083928Y-10626786D02*
X3098214Y-10612500D01*
X3126786Y-10598214D01*
X3169643Y-10598214D01*
X3198214Y-10612500D01*
X3212500Y-10641072D01*
X3212500Y-10798214D01*
X3212500Y-10641072D02*
X3226786Y-10612500D01*
X3255357Y-10598214D01*
X3298214Y-10598214D01*
X3326786Y-10612500D01*
X3341071Y-10641072D01*
X3341071Y-10798214D01*
X3926786Y-10483929D02*
X3669643Y-10869643D01*
X4312500Y-10498214D02*
X4341071Y-10498214D01*
X4369643Y-10512500D01*
X4383928Y-10526786D01*
X4398214Y-10555357D01*
X4412500Y-10612500D01*
X4412500Y-10683929D01*
X4398214Y-10741072D01*
X4383928Y-10769643D01*
X4369643Y-10783929D01*
X4341071Y-10798214D01*
X4312500Y-10798214D01*
X4283928Y-10783929D01*
X4269643Y-10769643D01*
X4255357Y-10741072D01*
X4241071Y-10683929D01*
X4241071Y-10612500D01*
X4255357Y-10555357D01*
X4269643Y-10526786D01*
X4283928Y-10512500D01*
X4312500Y-10498214D01*
X4541071Y-10769643D02*
X4555357Y-10783929D01*
X4541071Y-10798214D01*
X4526786Y-10783929D01*
X4541071Y-10769643D01*
X4541071Y-10798214D01*
X4741071Y-10498214D02*
X4769643Y-10498214D01*
X4798214Y-10512500D01*
X4812500Y-10526786D01*
X4826786Y-10555357D01*
X4841071Y-10612500D01*
X4841071Y-10683929D01*
X4826786Y-10741072D01*
X4812500Y-10769643D01*
X4798214Y-10783929D01*
X4769643Y-10798214D01*
X4741071Y-10798214D01*
X4712500Y-10783929D01*
X4698214Y-10769643D01*
X4683928Y-10741072D01*
X4669643Y-10683929D01*
X4669643Y-10612500D01*
X4683928Y-10555357D01*
X4698214Y-10526786D01*
X4712500Y-10512500D01*
X4741071Y-10498214D01*
X5126786Y-10798214D02*
X4955357Y-10798214D01*
X5041071Y-10798214D02*
X5041071Y-10498214D01*
X5012500Y-10541072D01*
X4983928Y-10569643D01*
X4955357Y-10583929D01*
X5383928Y-10498214D02*
X5326786Y-10498214D01*
X5298214Y-10512500D01*
X5283928Y-10526786D01*
X5255357Y-10569643D01*
X5241071Y-10626786D01*
X5241071Y-10741072D01*
X5255357Y-10769643D01*
X5269643Y-10783929D01*
X5298214Y-10798214D01*
X5355357Y-10798214D01*
X5383928Y-10783929D01*
X5398214Y-10769643D01*
X5412500Y-10741072D01*
X5412500Y-10669643D01*
X5398214Y-10641072D01*
X5383928Y-10626786D01*
X5355357Y-10612500D01*
X5298214Y-10612500D01*
X5269643Y-10626786D01*
X5255357Y-10641072D01*
X5241071Y-10669643D01*
X5526786Y-10498214D02*
X5526786Y-10555357D01*
X5641071Y-10498214D02*
X5641071Y-10555357D01*
X6083928Y-10912500D02*
X6069643Y-10898214D01*
X6041071Y-10855357D01*
X6026786Y-10826786D01*
X6012500Y-10783929D01*
X5998214Y-10712500D01*
X5998214Y-10655357D01*
X6012500Y-10583929D01*
X6026786Y-10541072D01*
X6041071Y-10512500D01*
X6069643Y-10469643D01*
X6083928Y-10455357D01*
X6169643Y-10498214D02*
X6355357Y-10498214D01*
X6255357Y-10612500D01*
X6298214Y-10612500D01*
X6326786Y-10626786D01*
X6341071Y-10641072D01*
X6355357Y-10669643D01*
X6355357Y-10741072D01*
X6341071Y-10769643D01*
X6326786Y-10783929D01*
X6298214Y-10798214D01*
X6212500Y-10798214D01*
X6183928Y-10783929D01*
X6169643Y-10769643D01*
X6541071Y-10498214D02*
X6569643Y-10498214D01*
X6598214Y-10512500D01*
X6612500Y-10526786D01*
X6626786Y-10555357D01*
X6641071Y-10612500D01*
X6641071Y-10683929D01*
X6626786Y-10741072D01*
X6612500Y-10769643D01*
X6598214Y-10783929D01*
X6569643Y-10798214D01*
X6541071Y-10798214D01*
X6512500Y-10783929D01*
X6498214Y-10769643D01*
X6483928Y-10741072D01*
X6469643Y-10683929D01*
X6469643Y-10612500D01*
X6483928Y-10555357D01*
X6498214Y-10526786D01*
X6512500Y-10512500D01*
X6541071Y-10498214D01*
X6998214Y-10798214D02*
X6998214Y-10498214D01*
X7126786Y-10798214D02*
X7126786Y-10641072D01*
X7112500Y-10612500D01*
X7083928Y-10598214D01*
X7041071Y-10598214D01*
X7012500Y-10612500D01*
X6998214Y-10626786D01*
X7312500Y-10798214D02*
X7283928Y-10783929D01*
X7269643Y-10769643D01*
X7255357Y-10741072D01*
X7255357Y-10655357D01*
X7269643Y-10626786D01*
X7283928Y-10612500D01*
X7312500Y-10598214D01*
X7355357Y-10598214D01*
X7383928Y-10612500D01*
X7398214Y-10626786D01*
X7412500Y-10655357D01*
X7412500Y-10741072D01*
X7398214Y-10769643D01*
X7383928Y-10783929D01*
X7355357Y-10798214D01*
X7312500Y-10798214D01*
X7583928Y-10798214D02*
X7555357Y-10783929D01*
X7541071Y-10755357D01*
X7541071Y-10498214D01*
X7812500Y-10783929D02*
X7783928Y-10798214D01*
X7726786Y-10798214D01*
X7698214Y-10783929D01*
X7683928Y-10755357D01*
X7683928Y-10641072D01*
X7698214Y-10612500D01*
X7726786Y-10598214D01*
X7783928Y-10598214D01*
X7812500Y-10612500D01*
X7826786Y-10641072D01*
X7826786Y-10669643D01*
X7683928Y-10698214D01*
X7941071Y-10783929D02*
X7969643Y-10798214D01*
X8026786Y-10798214D01*
X8055357Y-10783929D01*
X8069643Y-10755357D01*
X8069643Y-10741072D01*
X8055357Y-10712500D01*
X8026786Y-10698214D01*
X7983928Y-10698214D01*
X7955357Y-10683929D01*
X7941071Y-10655357D01*
X7941071Y-10641072D01*
X7955357Y-10612500D01*
X7983928Y-10598214D01*
X8026786Y-10598214D01*
X8055357Y-10612500D01*
X8169643Y-10912500D02*
X8183928Y-10898214D01*
X8212500Y-10855357D01*
X8226786Y-10826786D01*
X8241071Y-10783929D01*
X8255357Y-10712500D01*
X8255357Y-10655357D01*
X8241071Y-10583929D01*
X8226786Y-10541072D01*
X8212500Y-10512500D01*
X8183928Y-10469643D01*
X8169643Y-10455357D01*
X1397500Y-11058500D02*
G75*
G03*
X1397500Y-11058500I-40000J0D01*
G01*
X1741071Y-10894214D02*
X1769643Y-10894214D01*
X1798214Y-10908500D01*
X1812500Y-10922786D01*
X1826786Y-10951357D01*
X1841071Y-11008500D01*
X1841071Y-11079929D01*
X1826786Y-11137072D01*
X1812500Y-11165643D01*
X1798214Y-11179929D01*
X1769643Y-11194214D01*
X1741071Y-11194214D01*
X1712500Y-11179929D01*
X1698214Y-11165643D01*
X1683928Y-11137072D01*
X1669643Y-11079929D01*
X1669643Y-11008500D01*
X1683928Y-10951357D01*
X1698214Y-10922786D01*
X1712500Y-10908500D01*
X1741071Y-10894214D01*
X1969643Y-11165643D02*
X1983928Y-11179929D01*
X1969643Y-11194214D01*
X1955357Y-11179929D01*
X1969643Y-11165643D01*
X1969643Y-11194214D01*
X2155357Y-11022786D02*
X2126786Y-11008500D01*
X2112500Y-10994214D01*
X2098214Y-10965643D01*
X2098214Y-10951357D01*
X2112500Y-10922786D01*
X2126786Y-10908500D01*
X2155357Y-10894214D01*
X2212500Y-10894214D01*
X2241071Y-10908500D01*
X2255357Y-10922786D01*
X2269643Y-10951357D01*
X2269643Y-10965643D01*
X2255357Y-10994214D01*
X2241071Y-11008500D01*
X2212500Y-11022786D01*
X2155357Y-11022786D01*
X2126786Y-11037072D01*
X2112500Y-11051357D01*
X2098214Y-11079929D01*
X2098214Y-11137072D01*
X2112500Y-11165643D01*
X2126786Y-11179929D01*
X2155357Y-11194214D01*
X2212500Y-11194214D01*
X2241071Y-11179929D01*
X2255357Y-11165643D01*
X2269643Y-11137072D01*
X2269643Y-11079929D01*
X2255357Y-11051357D01*
X2241071Y-11037072D01*
X2212500Y-11022786D01*
X2455357Y-10894214D02*
X2483928Y-10894214D01*
X2512500Y-10908500D01*
X2526786Y-10922786D01*
X2541071Y-10951357D01*
X2555357Y-11008500D01*
X2555357Y-11079929D01*
X2541071Y-11137072D01*
X2526786Y-11165643D01*
X2512500Y-11179929D01*
X2483928Y-11194214D01*
X2455357Y-11194214D01*
X2426786Y-11179929D01*
X2412500Y-11165643D01*
X2398214Y-11137072D01*
X2383928Y-11079929D01*
X2383928Y-11008500D01*
X2398214Y-10951357D01*
X2412500Y-10922786D01*
X2426786Y-10908500D01*
X2455357Y-10894214D01*
X2683928Y-11194214D02*
X2683928Y-10994214D01*
X2683928Y-11022786D02*
X2698214Y-11008500D01*
X2726786Y-10994214D01*
X2769643Y-10994214D01*
X2798214Y-11008500D01*
X2812500Y-11037072D01*
X2812500Y-11194214D01*
X2812500Y-11037072D02*
X2826786Y-11008500D01*
X2855357Y-10994214D01*
X2898214Y-10994214D01*
X2926786Y-11008500D01*
X2941071Y-11037072D01*
X2941071Y-11194214D01*
X3083928Y-11194214D02*
X3083928Y-10994214D01*
X3083928Y-11022786D02*
X3098214Y-11008500D01*
X3126786Y-10994214D01*
X3169643Y-10994214D01*
X3198214Y-11008500D01*
X3212500Y-11037072D01*
X3212500Y-11194214D01*
X3212500Y-11037072D02*
X3226786Y-11008500D01*
X3255357Y-10994214D01*
X3298214Y-10994214D01*
X3326786Y-11008500D01*
X3341071Y-11037072D01*
X3341071Y-11194214D01*
X3926786Y-10879929D02*
X3669643Y-11265643D01*
X4312500Y-10894214D02*
X4341071Y-10894214D01*
X4369643Y-10908500D01*
X4383928Y-10922786D01*
X4398214Y-10951357D01*
X4412500Y-11008500D01*
X4412500Y-11079929D01*
X4398214Y-11137072D01*
X4383928Y-11165643D01*
X4369643Y-11179929D01*
X4341071Y-11194214D01*
X4312500Y-11194214D01*
X4283928Y-11179929D01*
X4269643Y-11165643D01*
X4255357Y-11137072D01*
X4241071Y-11079929D01*
X4241071Y-11008500D01*
X4255357Y-10951357D01*
X4269643Y-10922786D01*
X4283928Y-10908500D01*
X4312500Y-10894214D01*
X4541071Y-11165643D02*
X4555357Y-11179929D01*
X4541071Y-11194214D01*
X4526786Y-11179929D01*
X4541071Y-11165643D01*
X4541071Y-11194214D01*
X4741071Y-10894214D02*
X4769643Y-10894214D01*
X4798214Y-10908500D01*
X4812500Y-10922786D01*
X4826786Y-10951357D01*
X4841071Y-11008500D01*
X4841071Y-11079929D01*
X4826786Y-11137072D01*
X4812500Y-11165643D01*
X4798214Y-11179929D01*
X4769643Y-11194214D01*
X4741071Y-11194214D01*
X4712500Y-11179929D01*
X4698214Y-11165643D01*
X4683928Y-11137072D01*
X4669643Y-11079929D01*
X4669643Y-11008500D01*
X4683928Y-10951357D01*
X4698214Y-10922786D01*
X4712500Y-10908500D01*
X4741071Y-10894214D01*
X4941071Y-10894214D02*
X5126786Y-10894214D01*
X5026786Y-11008500D01*
X5069643Y-11008500D01*
X5098214Y-11022786D01*
X5112500Y-11037072D01*
X5126786Y-11065643D01*
X5126786Y-11137072D01*
X5112500Y-11165643D01*
X5098214Y-11179929D01*
X5069643Y-11194214D01*
X4983928Y-11194214D01*
X4955357Y-11179929D01*
X4941071Y-11165643D01*
X5412500Y-11194214D02*
X5241071Y-11194214D01*
X5326786Y-11194214D02*
X5326786Y-10894214D01*
X5298214Y-10937072D01*
X5269643Y-10965643D01*
X5241071Y-10979929D01*
X5526786Y-10894214D02*
X5526786Y-10951357D01*
X5641071Y-10894214D02*
X5641071Y-10951357D01*
X6083928Y-11308500D02*
X6069643Y-11294214D01*
X6041071Y-11251357D01*
X6026786Y-11222786D01*
X6012500Y-11179929D01*
X5998214Y-11108500D01*
X5998214Y-11051357D01*
X6012500Y-10979929D01*
X6026786Y-10937072D01*
X6041071Y-10908500D01*
X6069643Y-10865643D01*
X6083928Y-10851357D01*
X6355357Y-11194214D02*
X6183928Y-11194214D01*
X6269643Y-11194214D02*
X6269643Y-10894214D01*
X6241071Y-10937072D01*
X6212500Y-10965643D01*
X6183928Y-10979929D01*
X6612500Y-10894214D02*
X6555357Y-10894214D01*
X6526786Y-10908500D01*
X6512500Y-10922786D01*
X6483928Y-10965643D01*
X6469643Y-11022786D01*
X6469643Y-11137072D01*
X6483928Y-11165643D01*
X6498214Y-11179929D01*
X6526786Y-11194214D01*
X6583928Y-11194214D01*
X6612500Y-11179929D01*
X6626786Y-11165643D01*
X6641071Y-11137072D01*
X6641071Y-11065643D01*
X6626786Y-11037072D01*
X6612500Y-11022786D01*
X6583928Y-11008500D01*
X6526786Y-11008500D01*
X6498214Y-11022786D01*
X6483928Y-11037072D01*
X6469643Y-11065643D01*
X6998214Y-11194214D02*
X6998214Y-10894214D01*
X7126786Y-11194214D02*
X7126786Y-11037072D01*
X7112500Y-11008500D01*
X7083928Y-10994214D01*
X7041071Y-10994214D01*
X7012500Y-11008500D01*
X6998214Y-11022786D01*
X7312500Y-11194214D02*
X7283928Y-11179929D01*
X7269643Y-11165643D01*
X7255357Y-11137072D01*
X7255357Y-11051357D01*
X7269643Y-11022786D01*
X7283928Y-11008500D01*
X7312500Y-10994214D01*
X7355357Y-10994214D01*
X7383928Y-11008500D01*
X7398214Y-11022786D01*
X7412500Y-11051357D01*
X7412500Y-11137072D01*
X7398214Y-11165643D01*
X7383928Y-11179929D01*
X7355357Y-11194214D01*
X7312500Y-11194214D01*
X7583928Y-11194214D02*
X7555357Y-11179929D01*
X7541071Y-11151357D01*
X7541071Y-10894214D01*
X7812500Y-11179929D02*
X7783928Y-11194214D01*
X7726786Y-11194214D01*
X7698214Y-11179929D01*
X7683928Y-11151357D01*
X7683928Y-11037072D01*
X7698214Y-11008500D01*
X7726786Y-10994214D01*
X7783928Y-10994214D01*
X7812500Y-11008500D01*
X7826786Y-11037072D01*
X7826786Y-11065643D01*
X7683928Y-11094214D01*
X7941071Y-11179929D02*
X7969643Y-11194214D01*
X8026786Y-11194214D01*
X8055357Y-11179929D01*
X8069643Y-11151357D01*
X8069643Y-11137072D01*
X8055357Y-11108500D01*
X8026786Y-11094214D01*
X7983928Y-11094214D01*
X7955357Y-11079929D01*
X7941071Y-11051357D01*
X7941071Y-11037072D01*
X7955357Y-11008500D01*
X7983928Y-10994214D01*
X8026786Y-10994214D01*
X8055357Y-11008500D01*
X8169643Y-11308500D02*
X8183928Y-11294214D01*
X8212500Y-11251357D01*
X8226786Y-11222786D01*
X8241071Y-11179929D01*
X8255357Y-11108500D01*
X8255357Y-11051357D01*
X8241071Y-10979929D01*
X8226786Y-10937072D01*
X8212500Y-10908500D01*
X8183928Y-10865643D01*
X8169643Y-10851357D01*
X1347500Y-11404500D02*
X1347500Y-11504500D01*
X1297500Y-11454500D02*
X1397500Y-11454500D01*
X1841071Y-11590214D02*
X1669643Y-11590214D01*
X1755357Y-11590214D02*
X1755357Y-11290214D01*
X1726786Y-11333071D01*
X1698214Y-11361643D01*
X1669643Y-11375929D01*
X1969643Y-11561643D02*
X1983928Y-11575929D01*
X1969643Y-11590214D01*
X1955357Y-11575929D01*
X1969643Y-11561643D01*
X1969643Y-11590214D01*
X2169643Y-11290214D02*
X2198214Y-11290214D01*
X2226786Y-11304500D01*
X2241071Y-11318786D01*
X2255357Y-11347357D01*
X2269643Y-11404500D01*
X2269643Y-11475929D01*
X2255357Y-11533071D01*
X2241071Y-11561643D01*
X2226786Y-11575929D01*
X2198214Y-11590214D01*
X2169643Y-11590214D01*
X2141071Y-11575929D01*
X2126786Y-11561643D01*
X2112500Y-11533071D01*
X2098214Y-11475929D01*
X2098214Y-11404500D01*
X2112500Y-11347357D01*
X2126786Y-11318786D01*
X2141071Y-11304500D01*
X2169643Y-11290214D01*
X2455357Y-11290214D02*
X2483928Y-11290214D01*
X2512500Y-11304500D01*
X2526786Y-11318786D01*
X2541071Y-11347357D01*
X2555357Y-11404500D01*
X2555357Y-11475929D01*
X2541071Y-11533071D01*
X2526786Y-11561643D01*
X2512500Y-11575929D01*
X2483928Y-11590214D01*
X2455357Y-11590214D01*
X2426786Y-11575929D01*
X2412500Y-11561643D01*
X2398214Y-11533071D01*
X2383928Y-11475929D01*
X2383928Y-11404500D01*
X2398214Y-11347357D01*
X2412500Y-11318786D01*
X2426786Y-11304500D01*
X2455357Y-11290214D01*
X2683928Y-11590214D02*
X2683928Y-11390214D01*
X2683928Y-11418786D02*
X2698214Y-11404500D01*
X2726786Y-11390214D01*
X2769643Y-11390214D01*
X2798214Y-11404500D01*
X2812500Y-11433071D01*
X2812500Y-11590214D01*
X2812500Y-11433071D02*
X2826786Y-11404500D01*
X2855357Y-11390214D01*
X2898214Y-11390214D01*
X2926786Y-11404500D01*
X2941071Y-11433071D01*
X2941071Y-11590214D01*
X3083928Y-11590214D02*
X3083928Y-11390214D01*
X3083928Y-11418786D02*
X3098214Y-11404500D01*
X3126786Y-11390214D01*
X3169643Y-11390214D01*
X3198214Y-11404500D01*
X3212500Y-11433071D01*
X3212500Y-11590214D01*
X3212500Y-11433071D02*
X3226786Y-11404500D01*
X3255357Y-11390214D01*
X3298214Y-11390214D01*
X3326786Y-11404500D01*
X3341071Y-11433071D01*
X3341071Y-11590214D01*
X3926786Y-11275929D02*
X3669643Y-11661643D01*
X4312500Y-11290214D02*
X4341071Y-11290214D01*
X4369643Y-11304500D01*
X4383928Y-11318786D01*
X4398214Y-11347357D01*
X4412500Y-11404500D01*
X4412500Y-11475929D01*
X4398214Y-11533071D01*
X4383928Y-11561643D01*
X4369643Y-11575929D01*
X4341071Y-11590214D01*
X4312500Y-11590214D01*
X4283928Y-11575929D01*
X4269643Y-11561643D01*
X4255357Y-11533071D01*
X4241071Y-11475929D01*
X4241071Y-11404500D01*
X4255357Y-11347357D01*
X4269643Y-11318786D01*
X4283928Y-11304500D01*
X4312500Y-11290214D01*
X4541071Y-11561643D02*
X4555357Y-11575929D01*
X4541071Y-11590214D01*
X4526786Y-11575929D01*
X4541071Y-11561643D01*
X4541071Y-11590214D01*
X4741071Y-11290214D02*
X4769643Y-11290214D01*
X4798214Y-11304500D01*
X4812500Y-11318786D01*
X4826786Y-11347357D01*
X4841071Y-11404500D01*
X4841071Y-11475929D01*
X4826786Y-11533071D01*
X4812500Y-11561643D01*
X4798214Y-11575929D01*
X4769643Y-11590214D01*
X4741071Y-11590214D01*
X4712500Y-11575929D01*
X4698214Y-11561643D01*
X4683928Y-11533071D01*
X4669643Y-11475929D01*
X4669643Y-11404500D01*
X4683928Y-11347357D01*
X4698214Y-11318786D01*
X4712500Y-11304500D01*
X4741071Y-11290214D01*
X4941071Y-11290214D02*
X5126786Y-11290214D01*
X5026786Y-11404500D01*
X5069643Y-11404500D01*
X5098214Y-11418786D01*
X5112500Y-11433071D01*
X5126786Y-11461643D01*
X5126786Y-11533071D01*
X5112500Y-11561643D01*
X5098214Y-11575929D01*
X5069643Y-11590214D01*
X4983928Y-11590214D01*
X4955357Y-11575929D01*
X4941071Y-11561643D01*
X5269643Y-11590214D02*
X5326786Y-11590214D01*
X5355357Y-11575929D01*
X5369643Y-11561643D01*
X5398214Y-11518786D01*
X5412500Y-11461643D01*
X5412500Y-11347357D01*
X5398214Y-11318786D01*
X5383928Y-11304500D01*
X5355357Y-11290214D01*
X5298214Y-11290214D01*
X5269643Y-11304500D01*
X5255357Y-11318786D01*
X5241071Y-11347357D01*
X5241071Y-11418786D01*
X5255357Y-11447357D01*
X5269643Y-11461643D01*
X5298214Y-11475929D01*
X5355357Y-11475929D01*
X5383928Y-11461643D01*
X5398214Y-11447357D01*
X5412500Y-11418786D01*
X5526786Y-11290214D02*
X5526786Y-11347357D01*
X5641071Y-11290214D02*
X5641071Y-11347357D01*
X6083928Y-11704500D02*
X6069643Y-11690214D01*
X6041071Y-11647357D01*
X6026786Y-11618786D01*
X6012500Y-11575929D01*
X5998214Y-11504500D01*
X5998214Y-11447357D01*
X6012500Y-11375929D01*
X6026786Y-11333071D01*
X6041071Y-11304500D01*
X6069643Y-11261643D01*
X6083928Y-11247357D01*
X6326786Y-11390214D02*
X6326786Y-11590214D01*
X6255357Y-11275929D02*
X6183928Y-11490214D01*
X6369643Y-11490214D01*
X6712500Y-11590214D02*
X6712500Y-11290214D01*
X6841071Y-11590214D02*
X6841071Y-11433071D01*
X6826786Y-11404500D01*
X6798214Y-11390214D01*
X6755357Y-11390214D01*
X6726786Y-11404500D01*
X6712500Y-11418786D01*
X7026786Y-11590214D02*
X6998214Y-11575929D01*
X6983928Y-11561643D01*
X6969643Y-11533071D01*
X6969643Y-11447357D01*
X6983928Y-11418786D01*
X6998214Y-11404500D01*
X7026786Y-11390214D01*
X7069643Y-11390214D01*
X7098214Y-11404500D01*
X7112500Y-11418786D01*
X7126786Y-11447357D01*
X7126786Y-11533071D01*
X7112500Y-11561643D01*
X7098214Y-11575929D01*
X7069643Y-11590214D01*
X7026786Y-11590214D01*
X7298214Y-11590214D02*
X7269643Y-11575929D01*
X7255357Y-11547357D01*
X7255357Y-11290214D01*
X7526786Y-11575929D02*
X7498214Y-11590214D01*
X7441071Y-11590214D01*
X7412500Y-11575929D01*
X7398214Y-11547357D01*
X7398214Y-11433071D01*
X7412500Y-11404500D01*
X7441071Y-11390214D01*
X7498214Y-11390214D01*
X7526786Y-11404500D01*
X7541071Y-11433071D01*
X7541071Y-11461643D01*
X7398214Y-11490214D01*
X7655357Y-11575929D02*
X7683928Y-11590214D01*
X7741071Y-11590214D01*
X7769643Y-11575929D01*
X7783928Y-11547357D01*
X7783928Y-11533071D01*
X7769643Y-11504500D01*
X7741071Y-11490214D01*
X7698214Y-11490214D01*
X7669643Y-11475929D01*
X7655357Y-11447357D01*
X7655357Y-11433071D01*
X7669643Y-11404500D01*
X7698214Y-11390214D01*
X7741071Y-11390214D01*
X7769643Y-11404500D01*
X7883928Y-11704500D02*
X7898214Y-11690214D01*
X7926786Y-11647357D01*
X7941071Y-11618786D01*
X7955357Y-11575929D01*
X7969643Y-11504500D01*
X7969643Y-11447357D01*
X7955357Y-11375929D01*
X7941071Y-11333071D01*
X7926786Y-11304500D01*
X7898214Y-11261643D01*
X7883928Y-11247357D01*
X1381391Y-11889391D02*
X1381391Y-11811609D01*
X1303609Y-11811609D01*
X1303609Y-11889391D01*
X1381391Y-11889391D01*
X1841071Y-11986214D02*
X1669643Y-11986214D01*
X1755357Y-11986214D02*
X1755357Y-11686214D01*
X1726786Y-11729071D01*
X1698214Y-11757643D01*
X1669643Y-11771929D01*
X1969643Y-11957643D02*
X1983928Y-11971929D01*
X1969643Y-11986214D01*
X1955357Y-11971929D01*
X1969643Y-11957643D01*
X1969643Y-11986214D01*
X2269643Y-11986214D02*
X2098214Y-11986214D01*
X2183928Y-11986214D02*
X2183928Y-11686214D01*
X2155357Y-11729071D01*
X2126786Y-11757643D01*
X2098214Y-11771929D01*
X2455357Y-11686214D02*
X2483928Y-11686214D01*
X2512500Y-11700500D01*
X2526786Y-11714786D01*
X2541071Y-11743357D01*
X2555357Y-11800500D01*
X2555357Y-11871929D01*
X2541071Y-11929071D01*
X2526786Y-11957643D01*
X2512500Y-11971929D01*
X2483928Y-11986214D01*
X2455357Y-11986214D01*
X2426786Y-11971929D01*
X2412500Y-11957643D01*
X2398214Y-11929071D01*
X2383928Y-11871929D01*
X2383928Y-11800500D01*
X2398214Y-11743357D01*
X2412500Y-11714786D01*
X2426786Y-11700500D01*
X2455357Y-11686214D01*
X2683928Y-11986214D02*
X2683928Y-11786214D01*
X2683928Y-11814786D02*
X2698214Y-11800500D01*
X2726786Y-11786214D01*
X2769643Y-11786214D01*
X2798214Y-11800500D01*
X2812500Y-11829071D01*
X2812500Y-11986214D01*
X2812500Y-11829071D02*
X2826786Y-11800500D01*
X2855357Y-11786214D01*
X2898214Y-11786214D01*
X2926786Y-11800500D01*
X2941071Y-11829071D01*
X2941071Y-11986214D01*
X3083928Y-11986214D02*
X3083928Y-11786214D01*
X3083928Y-11814786D02*
X3098214Y-11800500D01*
X3126786Y-11786214D01*
X3169643Y-11786214D01*
X3198214Y-11800500D01*
X3212500Y-11829071D01*
X3212500Y-11986214D01*
X3212500Y-11829071D02*
X3226786Y-11800500D01*
X3255357Y-11786214D01*
X3298214Y-11786214D01*
X3326786Y-11800500D01*
X3341071Y-11829071D01*
X3341071Y-11986214D01*
X3926786Y-11671929D02*
X3669643Y-12057643D01*
X4312500Y-11686214D02*
X4341071Y-11686214D01*
X4369643Y-11700500D01*
X4383928Y-11714786D01*
X4398214Y-11743357D01*
X4412500Y-11800500D01*
X4412500Y-11871929D01*
X4398214Y-11929071D01*
X4383928Y-11957643D01*
X4369643Y-11971929D01*
X4341071Y-11986214D01*
X4312500Y-11986214D01*
X4283928Y-11971929D01*
X4269643Y-11957643D01*
X4255357Y-11929071D01*
X4241071Y-11871929D01*
X4241071Y-11800500D01*
X4255357Y-11743357D01*
X4269643Y-11714786D01*
X4283928Y-11700500D01*
X4312500Y-11686214D01*
X4541071Y-11957643D02*
X4555357Y-11971929D01*
X4541071Y-11986214D01*
X4526786Y-11971929D01*
X4541071Y-11957643D01*
X4541071Y-11986214D01*
X4741071Y-11686214D02*
X4769643Y-11686214D01*
X4798214Y-11700500D01*
X4812500Y-11714786D01*
X4826786Y-11743357D01*
X4841071Y-11800500D01*
X4841071Y-11871929D01*
X4826786Y-11929071D01*
X4812500Y-11957643D01*
X4798214Y-11971929D01*
X4769643Y-11986214D01*
X4741071Y-11986214D01*
X4712500Y-11971929D01*
X4698214Y-11957643D01*
X4683928Y-11929071D01*
X4669643Y-11871929D01*
X4669643Y-11800500D01*
X4683928Y-11743357D01*
X4698214Y-11714786D01*
X4712500Y-11700500D01*
X4741071Y-11686214D01*
X5098214Y-11786214D02*
X5098214Y-11986214D01*
X5026786Y-11671929D02*
X4955357Y-11886214D01*
X5141071Y-11886214D01*
X5226786Y-11686214D02*
X5412500Y-11686214D01*
X5312500Y-11800500D01*
X5355357Y-11800500D01*
X5383928Y-11814786D01*
X5398214Y-11829071D01*
X5412500Y-11857643D01*
X5412500Y-11929071D01*
X5398214Y-11957643D01*
X5383928Y-11971929D01*
X5355357Y-11986214D01*
X5269643Y-11986214D01*
X5241071Y-11971929D01*
X5226786Y-11957643D01*
X5526786Y-11686214D02*
X5526786Y-11743357D01*
X5641071Y-11686214D02*
X5641071Y-11743357D01*
X6083928Y-12100500D02*
X6069643Y-12086214D01*
X6041071Y-12043357D01*
X6026786Y-12014786D01*
X6012500Y-11971929D01*
X5998214Y-11900500D01*
X5998214Y-11843357D01*
X6012500Y-11771929D01*
X6026786Y-11729071D01*
X6041071Y-11700500D01*
X6069643Y-11657643D01*
X6083928Y-11643357D01*
X6241071Y-11814786D02*
X6212500Y-11800500D01*
X6198214Y-11786214D01*
X6183928Y-11757643D01*
X6183928Y-11743357D01*
X6198214Y-11714786D01*
X6212500Y-11700500D01*
X6241071Y-11686214D01*
X6298214Y-11686214D01*
X6326786Y-11700500D01*
X6341071Y-11714786D01*
X6355357Y-11743357D01*
X6355357Y-11757643D01*
X6341071Y-11786214D01*
X6326786Y-11800500D01*
X6298214Y-11814786D01*
X6241071Y-11814786D01*
X6212500Y-11829071D01*
X6198214Y-11843357D01*
X6183928Y-11871929D01*
X6183928Y-11929071D01*
X6198214Y-11957643D01*
X6212500Y-11971929D01*
X6241071Y-11986214D01*
X6298214Y-11986214D01*
X6326786Y-11971929D01*
X6341071Y-11957643D01*
X6355357Y-11929071D01*
X6355357Y-11871929D01*
X6341071Y-11843357D01*
X6326786Y-11829071D01*
X6298214Y-11814786D01*
X6712500Y-11986214D02*
X6712500Y-11686214D01*
X6841071Y-11986214D02*
X6841071Y-11829071D01*
X6826786Y-11800500D01*
X6798214Y-11786214D01*
X6755357Y-11786214D01*
X6726786Y-11800500D01*
X6712500Y-11814786D01*
X7026786Y-11986214D02*
X6998214Y-11971929D01*
X6983928Y-11957643D01*
X6969643Y-11929071D01*
X6969643Y-11843357D01*
X6983928Y-11814786D01*
X6998214Y-11800500D01*
X7026786Y-11786214D01*
X7069643Y-11786214D01*
X7098214Y-11800500D01*
X7112500Y-11814786D01*
X7126786Y-11843357D01*
X7126786Y-11929071D01*
X7112500Y-11957643D01*
X7098214Y-11971929D01*
X7069643Y-11986214D01*
X7026786Y-11986214D01*
X7298214Y-11986214D02*
X7269643Y-11971929D01*
X7255357Y-11943357D01*
X7255357Y-11686214D01*
X7526786Y-11971929D02*
X7498214Y-11986214D01*
X7441071Y-11986214D01*
X7412500Y-11971929D01*
X7398214Y-11943357D01*
X7398214Y-11829071D01*
X7412500Y-11800500D01*
X7441071Y-11786214D01*
X7498214Y-11786214D01*
X7526786Y-11800500D01*
X7541071Y-11829071D01*
X7541071Y-11857643D01*
X7398214Y-11886214D01*
X7655357Y-11971929D02*
X7683928Y-11986214D01*
X7741071Y-11986214D01*
X7769643Y-11971929D01*
X7783928Y-11943357D01*
X7783928Y-11929071D01*
X7769643Y-11900500D01*
X7741071Y-11886214D01*
X7698214Y-11886214D01*
X7669643Y-11871929D01*
X7655357Y-11843357D01*
X7655357Y-11829071D01*
X7669643Y-11800500D01*
X7698214Y-11786214D01*
X7741071Y-11786214D01*
X7769643Y-11800500D01*
X7883928Y-12100500D02*
X7898214Y-12086214D01*
X7926786Y-12043357D01*
X7941071Y-12014786D01*
X7955357Y-11971929D01*
X7969643Y-11900500D01*
X7969643Y-11843357D01*
X7955357Y-11771929D01*
X7941071Y-11729071D01*
X7926786Y-11700500D01*
X7898214Y-11657643D01*
X7883928Y-11643357D01*
X1322500Y-12321500D02*
X1397500Y-12246500D01*
X1322500Y-12171500D01*
X1247500Y-12246500D01*
X1322500Y-12321500D01*
X1841071Y-12382214D02*
X1669643Y-12382214D01*
X1755357Y-12382214D02*
X1755357Y-12082214D01*
X1726786Y-12125071D01*
X1698214Y-12153643D01*
X1669643Y-12167929D01*
X1969643Y-12353643D02*
X1983928Y-12367929D01*
X1969643Y-12382214D01*
X1955357Y-12367929D01*
X1969643Y-12353643D01*
X1969643Y-12382214D01*
X2255357Y-12082214D02*
X2112500Y-12082214D01*
X2098214Y-12225071D01*
X2112500Y-12210786D01*
X2141071Y-12196500D01*
X2212500Y-12196500D01*
X2241071Y-12210786D01*
X2255357Y-12225071D01*
X2269643Y-12253643D01*
X2269643Y-12325071D01*
X2255357Y-12353643D01*
X2241071Y-12367929D01*
X2212500Y-12382214D01*
X2141071Y-12382214D01*
X2112500Y-12367929D01*
X2098214Y-12353643D01*
X2455357Y-12082214D02*
X2483928Y-12082214D01*
X2512500Y-12096500D01*
X2526786Y-12110786D01*
X2541071Y-12139357D01*
X2555357Y-12196500D01*
X2555357Y-12267929D01*
X2541071Y-12325071D01*
X2526786Y-12353643D01*
X2512500Y-12367929D01*
X2483928Y-12382214D01*
X2455357Y-12382214D01*
X2426786Y-12367929D01*
X2412500Y-12353643D01*
X2398214Y-12325071D01*
X2383928Y-12267929D01*
X2383928Y-12196500D01*
X2398214Y-12139357D01*
X2412500Y-12110786D01*
X2426786Y-12096500D01*
X2455357Y-12082214D01*
X2683928Y-12382214D02*
X2683928Y-12182214D01*
X2683928Y-12210786D02*
X2698214Y-12196500D01*
X2726786Y-12182214D01*
X2769643Y-12182214D01*
X2798214Y-12196500D01*
X2812500Y-12225071D01*
X2812500Y-12382214D01*
X2812500Y-12225071D02*
X2826786Y-12196500D01*
X2855357Y-12182214D01*
X2898214Y-12182214D01*
X2926786Y-12196500D01*
X2941071Y-12225071D01*
X2941071Y-12382214D01*
X3083928Y-12382214D02*
X3083928Y-12182214D01*
X3083928Y-12210786D02*
X3098214Y-12196500D01*
X3126786Y-12182214D01*
X3169643Y-12182214D01*
X3198214Y-12196500D01*
X3212500Y-12225071D01*
X3212500Y-12382214D01*
X3212500Y-12225071D02*
X3226786Y-12196500D01*
X3255357Y-12182214D01*
X3298214Y-12182214D01*
X3326786Y-12196500D01*
X3341071Y-12225071D01*
X3341071Y-12382214D01*
X3926786Y-12067929D02*
X3669643Y-12453643D01*
X4312500Y-12082214D02*
X4341071Y-12082214D01*
X4369643Y-12096500D01*
X4383928Y-12110786D01*
X4398214Y-12139357D01*
X4412500Y-12196500D01*
X4412500Y-12267929D01*
X4398214Y-12325071D01*
X4383928Y-12353643D01*
X4369643Y-12367929D01*
X4341071Y-12382214D01*
X4312500Y-12382214D01*
X4283928Y-12367929D01*
X4269643Y-12353643D01*
X4255357Y-12325071D01*
X4241071Y-12267929D01*
X4241071Y-12196500D01*
X4255357Y-12139357D01*
X4269643Y-12110786D01*
X4283928Y-12096500D01*
X4312500Y-12082214D01*
X4541071Y-12353643D02*
X4555357Y-12367929D01*
X4541071Y-12382214D01*
X4526786Y-12367929D01*
X4541071Y-12353643D01*
X4541071Y-12382214D01*
X4741071Y-12082214D02*
X4769643Y-12082214D01*
X4798214Y-12096500D01*
X4812500Y-12110786D01*
X4826786Y-12139357D01*
X4841071Y-12196500D01*
X4841071Y-12267929D01*
X4826786Y-12325071D01*
X4812500Y-12353643D01*
X4798214Y-12367929D01*
X4769643Y-12382214D01*
X4741071Y-12382214D01*
X4712500Y-12367929D01*
X4698214Y-12353643D01*
X4683928Y-12325071D01*
X4669643Y-12267929D01*
X4669643Y-12196500D01*
X4683928Y-12139357D01*
X4698214Y-12110786D01*
X4712500Y-12096500D01*
X4741071Y-12082214D01*
X5112500Y-12082214D02*
X4969643Y-12082214D01*
X4955357Y-12225071D01*
X4969643Y-12210786D01*
X4998214Y-12196500D01*
X5069643Y-12196500D01*
X5098214Y-12210786D01*
X5112500Y-12225071D01*
X5126786Y-12253643D01*
X5126786Y-12325071D01*
X5112500Y-12353643D01*
X5098214Y-12367929D01*
X5069643Y-12382214D01*
X4998214Y-12382214D01*
X4969643Y-12367929D01*
X4955357Y-12353643D01*
X5269643Y-12382214D02*
X5326786Y-12382214D01*
X5355357Y-12367929D01*
X5369643Y-12353643D01*
X5398214Y-12310786D01*
X5412500Y-12253643D01*
X5412500Y-12139357D01*
X5398214Y-12110786D01*
X5383928Y-12096500D01*
X5355357Y-12082214D01*
X5298214Y-12082214D01*
X5269643Y-12096500D01*
X5255357Y-12110786D01*
X5241071Y-12139357D01*
X5241071Y-12210786D01*
X5255357Y-12239357D01*
X5269643Y-12253643D01*
X5298214Y-12267929D01*
X5355357Y-12267929D01*
X5383928Y-12253643D01*
X5398214Y-12239357D01*
X5412500Y-12210786D01*
X5526786Y-12082214D02*
X5526786Y-12139357D01*
X5641071Y-12082214D02*
X5641071Y-12139357D01*
X6083928Y-12496500D02*
X6069643Y-12482214D01*
X6041071Y-12439357D01*
X6026786Y-12410786D01*
X6012500Y-12367929D01*
X5998214Y-12296500D01*
X5998214Y-12239357D01*
X6012500Y-12167929D01*
X6026786Y-12125071D01*
X6041071Y-12096500D01*
X6069643Y-12053643D01*
X6083928Y-12039357D01*
X6169643Y-12082214D02*
X6355357Y-12082214D01*
X6255357Y-12196500D01*
X6298214Y-12196500D01*
X6326786Y-12210786D01*
X6341071Y-12225071D01*
X6355357Y-12253643D01*
X6355357Y-12325071D01*
X6341071Y-12353643D01*
X6326786Y-12367929D01*
X6298214Y-12382214D01*
X6212500Y-12382214D01*
X6183928Y-12367929D01*
X6169643Y-12353643D01*
X6641071Y-12382214D02*
X6469643Y-12382214D01*
X6555357Y-12382214D02*
X6555357Y-12082214D01*
X6526786Y-12125071D01*
X6498214Y-12153643D01*
X6469643Y-12167929D01*
X6998214Y-12382214D02*
X6998214Y-12082214D01*
X7126786Y-12382214D02*
X7126786Y-12225071D01*
X7112500Y-12196500D01*
X7083928Y-12182214D01*
X7041071Y-12182214D01*
X7012500Y-12196500D01*
X6998214Y-12210786D01*
X7312500Y-12382214D02*
X7283928Y-12367929D01*
X7269643Y-12353643D01*
X7255357Y-12325071D01*
X7255357Y-12239357D01*
X7269643Y-12210786D01*
X7283928Y-12196500D01*
X7312500Y-12182214D01*
X7355357Y-12182214D01*
X7383928Y-12196500D01*
X7398214Y-12210786D01*
X7412500Y-12239357D01*
X7412500Y-12325071D01*
X7398214Y-12353643D01*
X7383928Y-12367929D01*
X7355357Y-12382214D01*
X7312500Y-12382214D01*
X7583928Y-12382214D02*
X7555357Y-12367929D01*
X7541071Y-12339357D01*
X7541071Y-12082214D01*
X7812500Y-12367929D02*
X7783928Y-12382214D01*
X7726786Y-12382214D01*
X7698214Y-12367929D01*
X7683928Y-12339357D01*
X7683928Y-12225071D01*
X7698214Y-12196500D01*
X7726786Y-12182214D01*
X7783928Y-12182214D01*
X7812500Y-12196500D01*
X7826786Y-12225071D01*
X7826786Y-12253643D01*
X7683928Y-12282214D01*
X7941071Y-12367929D02*
X7969643Y-12382214D01*
X8026786Y-12382214D01*
X8055357Y-12367929D01*
X8069643Y-12339357D01*
X8069643Y-12325071D01*
X8055357Y-12296500D01*
X8026786Y-12282214D01*
X7983928Y-12282214D01*
X7955357Y-12267929D01*
X7941071Y-12239357D01*
X7941071Y-12225071D01*
X7955357Y-12196500D01*
X7983928Y-12182214D01*
X8026786Y-12182214D01*
X8055357Y-12196500D01*
X8169643Y-12496500D02*
X8183928Y-12482214D01*
X8212500Y-12439357D01*
X8226786Y-12410786D01*
X8241071Y-12367929D01*
X8255357Y-12296500D01*
X8255357Y-12239357D01*
X8241071Y-12167929D01*
X8226786Y-12125071D01*
X8212500Y-12096500D01*
X8183928Y-12053643D01*
X8169643Y-12039357D01*
X1212500Y-12550000D02*
X1397500Y-12735000D01*
X1397500Y-12550000D02*
X1212500Y-12735000D01*
X1397500Y-12642500D02*
G75*
G03*
X1397500Y-12642500I-92500J0D01*
G01*
X1841071Y-12778214D02*
X1669643Y-12778214D01*
X1755357Y-12778214D02*
X1755357Y-12478214D01*
X1726786Y-12521071D01*
X1698214Y-12549643D01*
X1669643Y-12563929D01*
X1969643Y-12749643D02*
X1983928Y-12763929D01*
X1969643Y-12778214D01*
X1955357Y-12763929D01*
X1969643Y-12749643D01*
X1969643Y-12778214D01*
X2155357Y-12606786D02*
X2126786Y-12592500D01*
X2112500Y-12578214D01*
X2098214Y-12549643D01*
X2098214Y-12535357D01*
X2112500Y-12506786D01*
X2126786Y-12492500D01*
X2155357Y-12478214D01*
X2212500Y-12478214D01*
X2241071Y-12492500D01*
X2255357Y-12506786D01*
X2269643Y-12535357D01*
X2269643Y-12549643D01*
X2255357Y-12578214D01*
X2241071Y-12592500D01*
X2212500Y-12606786D01*
X2155357Y-12606786D01*
X2126786Y-12621071D01*
X2112500Y-12635357D01*
X2098214Y-12663929D01*
X2098214Y-12721071D01*
X2112500Y-12749643D01*
X2126786Y-12763929D01*
X2155357Y-12778214D01*
X2212500Y-12778214D01*
X2241071Y-12763929D01*
X2255357Y-12749643D01*
X2269643Y-12721071D01*
X2269643Y-12663929D01*
X2255357Y-12635357D01*
X2241071Y-12621071D01*
X2212500Y-12606786D01*
X2541071Y-12478214D02*
X2398214Y-12478214D01*
X2383928Y-12621071D01*
X2398214Y-12606786D01*
X2426786Y-12592500D01*
X2498214Y-12592500D01*
X2526786Y-12606786D01*
X2541071Y-12621071D01*
X2555357Y-12649643D01*
X2555357Y-12721071D01*
X2541071Y-12749643D01*
X2526786Y-12763929D01*
X2498214Y-12778214D01*
X2426786Y-12778214D01*
X2398214Y-12763929D01*
X2383928Y-12749643D01*
X2683928Y-12778214D02*
X2683928Y-12578214D01*
X2683928Y-12606786D02*
X2698214Y-12592500D01*
X2726786Y-12578214D01*
X2769643Y-12578214D01*
X2798214Y-12592500D01*
X2812500Y-12621071D01*
X2812500Y-12778214D01*
X2812500Y-12621071D02*
X2826786Y-12592500D01*
X2855357Y-12578214D01*
X2898214Y-12578214D01*
X2926786Y-12592500D01*
X2941071Y-12621071D01*
X2941071Y-12778214D01*
X3083928Y-12778214D02*
X3083928Y-12578214D01*
X3083928Y-12606786D02*
X3098214Y-12592500D01*
X3126786Y-12578214D01*
X3169643Y-12578214D01*
X3198214Y-12592500D01*
X3212500Y-12621071D01*
X3212500Y-12778214D01*
X3212500Y-12621071D02*
X3226786Y-12592500D01*
X3255357Y-12578214D01*
X3298214Y-12578214D01*
X3326786Y-12592500D01*
X3341071Y-12621071D01*
X3341071Y-12778214D01*
X3926786Y-12463929D02*
X3669643Y-12849643D01*
X4312500Y-12478214D02*
X4341071Y-12478214D01*
X4369643Y-12492500D01*
X4383928Y-12506786D01*
X4398214Y-12535357D01*
X4412500Y-12592500D01*
X4412500Y-12663929D01*
X4398214Y-12721071D01*
X4383928Y-12749643D01*
X4369643Y-12763929D01*
X4341071Y-12778214D01*
X4312500Y-12778214D01*
X4283928Y-12763929D01*
X4269643Y-12749643D01*
X4255357Y-12721071D01*
X4241071Y-12663929D01*
X4241071Y-12592500D01*
X4255357Y-12535357D01*
X4269643Y-12506786D01*
X4283928Y-12492500D01*
X4312500Y-12478214D01*
X4541071Y-12749643D02*
X4555357Y-12763929D01*
X4541071Y-12778214D01*
X4526786Y-12763929D01*
X4541071Y-12749643D01*
X4541071Y-12778214D01*
X4741071Y-12478214D02*
X4769643Y-12478214D01*
X4798214Y-12492500D01*
X4812500Y-12506786D01*
X4826786Y-12535357D01*
X4841071Y-12592500D01*
X4841071Y-12663929D01*
X4826786Y-12721071D01*
X4812500Y-12749643D01*
X4798214Y-12763929D01*
X4769643Y-12778214D01*
X4741071Y-12778214D01*
X4712500Y-12763929D01*
X4698214Y-12749643D01*
X4683928Y-12721071D01*
X4669643Y-12663929D01*
X4669643Y-12592500D01*
X4683928Y-12535357D01*
X4698214Y-12506786D01*
X4712500Y-12492500D01*
X4741071Y-12478214D01*
X4941071Y-12478214D02*
X5141071Y-12478214D01*
X5012500Y-12778214D01*
X5226786Y-12478214D02*
X5412500Y-12478214D01*
X5312500Y-12592500D01*
X5355357Y-12592500D01*
X5383928Y-12606786D01*
X5398214Y-12621071D01*
X5412500Y-12649643D01*
X5412500Y-12721071D01*
X5398214Y-12749643D01*
X5383928Y-12763929D01*
X5355357Y-12778214D01*
X5269643Y-12778214D01*
X5241071Y-12763929D01*
X5226786Y-12749643D01*
X5526786Y-12478214D02*
X5526786Y-12535357D01*
X5641071Y-12478214D02*
X5641071Y-12535357D01*
X6083928Y-12892500D02*
X6069643Y-12878214D01*
X6041071Y-12835357D01*
X6026786Y-12806786D01*
X6012500Y-12763929D01*
X5998214Y-12692500D01*
X5998214Y-12635357D01*
X6012500Y-12563929D01*
X6026786Y-12521071D01*
X6041071Y-12492500D01*
X6069643Y-12449643D01*
X6083928Y-12435357D01*
X6326786Y-12578214D02*
X6326786Y-12778214D01*
X6255357Y-12463929D02*
X6183928Y-12678214D01*
X6369643Y-12678214D01*
X6712500Y-12778214D02*
X6712500Y-12478214D01*
X6841071Y-12778214D02*
X6841071Y-12621071D01*
X6826786Y-12592500D01*
X6798214Y-12578214D01*
X6755357Y-12578214D01*
X6726786Y-12592500D01*
X6712500Y-12606786D01*
X7026786Y-12778214D02*
X6998214Y-12763929D01*
X6983928Y-12749643D01*
X6969643Y-12721071D01*
X6969643Y-12635357D01*
X6983928Y-12606786D01*
X6998214Y-12592500D01*
X7026786Y-12578214D01*
X7069643Y-12578214D01*
X7098214Y-12592500D01*
X7112500Y-12606786D01*
X7126786Y-12635357D01*
X7126786Y-12721071D01*
X7112500Y-12749643D01*
X7098214Y-12763929D01*
X7069643Y-12778214D01*
X7026786Y-12778214D01*
X7298214Y-12778214D02*
X7269643Y-12763929D01*
X7255357Y-12735357D01*
X7255357Y-12478214D01*
X7526786Y-12763929D02*
X7498214Y-12778214D01*
X7441071Y-12778214D01*
X7412500Y-12763929D01*
X7398214Y-12735357D01*
X7398214Y-12621071D01*
X7412500Y-12592500D01*
X7441071Y-12578214D01*
X7498214Y-12578214D01*
X7526786Y-12592500D01*
X7541071Y-12621071D01*
X7541071Y-12649643D01*
X7398214Y-12678214D01*
X7655357Y-12763929D02*
X7683928Y-12778214D01*
X7741071Y-12778214D01*
X7769643Y-12763929D01*
X7783928Y-12735357D01*
X7783928Y-12721071D01*
X7769643Y-12692500D01*
X7741071Y-12678214D01*
X7698214Y-12678214D01*
X7669643Y-12663929D01*
X7655357Y-12635357D01*
X7655357Y-12621071D01*
X7669643Y-12592500D01*
X7698214Y-12578214D01*
X7741071Y-12578214D01*
X7769643Y-12592500D01*
X7883928Y-12892500D02*
X7898214Y-12878214D01*
X7926786Y-12835357D01*
X7941071Y-12806786D01*
X7955357Y-12763929D01*
X7969643Y-12692500D01*
X7969643Y-12635357D01*
X7955357Y-12563929D01*
X7941071Y-12521071D01*
X7926786Y-12492500D01*
X7898214Y-12449643D01*
X7883928Y-12435357D01*
X1197500Y-12938500D02*
X1397500Y-13138500D01*
X1397500Y-12938500D02*
X1197500Y-13138500D01*
X1297500Y-12938500D02*
X1297500Y-13138500D01*
X1197500Y-13038500D02*
X1397500Y-13038500D01*
X1669643Y-12902786D02*
X1683928Y-12888500D01*
X1712500Y-12874214D01*
X1783928Y-12874214D01*
X1812500Y-12888500D01*
X1826786Y-12902786D01*
X1841071Y-12931357D01*
X1841071Y-12959929D01*
X1826786Y-13002786D01*
X1655357Y-13174214D01*
X1841071Y-13174214D01*
X1969643Y-13145643D02*
X1983928Y-13159929D01*
X1969643Y-13174214D01*
X1955357Y-13159929D01*
X1969643Y-13145643D01*
X1969643Y-13174214D01*
X2169643Y-12874214D02*
X2198214Y-12874214D01*
X2226786Y-12888500D01*
X2241071Y-12902786D01*
X2255357Y-12931357D01*
X2269643Y-12988500D01*
X2269643Y-13059929D01*
X2255357Y-13117071D01*
X2241071Y-13145643D01*
X2226786Y-13159929D01*
X2198214Y-13174214D01*
X2169643Y-13174214D01*
X2141071Y-13159929D01*
X2126786Y-13145643D01*
X2112500Y-13117071D01*
X2098214Y-13059929D01*
X2098214Y-12988500D01*
X2112500Y-12931357D01*
X2126786Y-12902786D01*
X2141071Y-12888500D01*
X2169643Y-12874214D01*
X2455357Y-12874214D02*
X2483928Y-12874214D01*
X2512500Y-12888500D01*
X2526786Y-12902786D01*
X2541071Y-12931357D01*
X2555357Y-12988500D01*
X2555357Y-13059929D01*
X2541071Y-13117071D01*
X2526786Y-13145643D01*
X2512500Y-13159929D01*
X2483928Y-13174214D01*
X2455357Y-13174214D01*
X2426786Y-13159929D01*
X2412500Y-13145643D01*
X2398214Y-13117071D01*
X2383928Y-13059929D01*
X2383928Y-12988500D01*
X2398214Y-12931357D01*
X2412500Y-12902786D01*
X2426786Y-12888500D01*
X2455357Y-12874214D01*
X2683928Y-13174214D02*
X2683928Y-12974214D01*
X2683928Y-13002786D02*
X2698214Y-12988500D01*
X2726786Y-12974214D01*
X2769643Y-12974214D01*
X2798214Y-12988500D01*
X2812500Y-13017071D01*
X2812500Y-13174214D01*
X2812500Y-13017071D02*
X2826786Y-12988500D01*
X2855357Y-12974214D01*
X2898214Y-12974214D01*
X2926786Y-12988500D01*
X2941071Y-13017071D01*
X2941071Y-13174214D01*
X3083928Y-13174214D02*
X3083928Y-12974214D01*
X3083928Y-13002786D02*
X3098214Y-12988500D01*
X3126786Y-12974214D01*
X3169643Y-12974214D01*
X3198214Y-12988500D01*
X3212500Y-13017071D01*
X3212500Y-13174214D01*
X3212500Y-13017071D02*
X3226786Y-12988500D01*
X3255357Y-12974214D01*
X3298214Y-12974214D01*
X3326786Y-12988500D01*
X3341071Y-13017071D01*
X3341071Y-13174214D01*
X3926786Y-12859929D02*
X3669643Y-13245643D01*
X4312500Y-12874214D02*
X4341071Y-12874214D01*
X4369643Y-12888500D01*
X4383928Y-12902786D01*
X4398214Y-12931357D01*
X4412500Y-12988500D01*
X4412500Y-13059929D01*
X4398214Y-13117071D01*
X4383928Y-13145643D01*
X4369643Y-13159929D01*
X4341071Y-13174214D01*
X4312500Y-13174214D01*
X4283928Y-13159929D01*
X4269643Y-13145643D01*
X4255357Y-13117071D01*
X4241071Y-13059929D01*
X4241071Y-12988500D01*
X4255357Y-12931357D01*
X4269643Y-12902786D01*
X4283928Y-12888500D01*
X4312500Y-12874214D01*
X4541071Y-13145643D02*
X4555357Y-13159929D01*
X4541071Y-13174214D01*
X4526786Y-13159929D01*
X4541071Y-13145643D01*
X4541071Y-13174214D01*
X4741071Y-12874214D02*
X4769643Y-12874214D01*
X4798214Y-12888500D01*
X4812500Y-12902786D01*
X4826786Y-12931357D01*
X4841071Y-12988500D01*
X4841071Y-13059929D01*
X4826786Y-13117071D01*
X4812500Y-13145643D01*
X4798214Y-13159929D01*
X4769643Y-13174214D01*
X4741071Y-13174214D01*
X4712500Y-13159929D01*
X4698214Y-13145643D01*
X4683928Y-13117071D01*
X4669643Y-13059929D01*
X4669643Y-12988500D01*
X4683928Y-12931357D01*
X4698214Y-12902786D01*
X4712500Y-12888500D01*
X4741071Y-12874214D01*
X4941071Y-12874214D02*
X5141071Y-12874214D01*
X5012500Y-13174214D01*
X5269643Y-13174214D02*
X5326786Y-13174214D01*
X5355357Y-13159929D01*
X5369643Y-13145643D01*
X5398214Y-13102786D01*
X5412500Y-13045643D01*
X5412500Y-12931357D01*
X5398214Y-12902786D01*
X5383928Y-12888500D01*
X5355357Y-12874214D01*
X5298214Y-12874214D01*
X5269643Y-12888500D01*
X5255357Y-12902786D01*
X5241071Y-12931357D01*
X5241071Y-13002786D01*
X5255357Y-13031357D01*
X5269643Y-13045643D01*
X5298214Y-13059929D01*
X5355357Y-13059929D01*
X5383928Y-13045643D01*
X5398214Y-13031357D01*
X5412500Y-13002786D01*
X5526786Y-12874214D02*
X5526786Y-12931357D01*
X5641071Y-12874214D02*
X5641071Y-12931357D01*
X6083928Y-13288500D02*
X6069643Y-13274214D01*
X6041071Y-13231357D01*
X6026786Y-13202786D01*
X6012500Y-13159929D01*
X5998214Y-13088500D01*
X5998214Y-13031357D01*
X6012500Y-12959929D01*
X6026786Y-12917071D01*
X6041071Y-12888500D01*
X6069643Y-12845643D01*
X6083928Y-12831357D01*
X6183928Y-12902786D02*
X6198214Y-12888500D01*
X6226786Y-12874214D01*
X6298214Y-12874214D01*
X6326786Y-12888500D01*
X6341071Y-12902786D01*
X6355357Y-12931357D01*
X6355357Y-12959929D01*
X6341071Y-13002786D01*
X6169643Y-13174214D01*
X6355357Y-13174214D01*
X6712500Y-13174214D02*
X6712500Y-12874214D01*
X6841071Y-13174214D02*
X6841071Y-13017071D01*
X6826786Y-12988500D01*
X6798214Y-12974214D01*
X6755357Y-12974214D01*
X6726786Y-12988500D01*
X6712500Y-13002786D01*
X7026786Y-13174214D02*
X6998214Y-13159929D01*
X6983928Y-13145643D01*
X6969643Y-13117071D01*
X6969643Y-13031357D01*
X6983928Y-13002786D01*
X6998214Y-12988500D01*
X7026786Y-12974214D01*
X7069643Y-12974214D01*
X7098214Y-12988500D01*
X7112500Y-13002786D01*
X7126786Y-13031357D01*
X7126786Y-13117071D01*
X7112500Y-13145643D01*
X7098214Y-13159929D01*
X7069643Y-13174214D01*
X7026786Y-13174214D01*
X7298214Y-13174214D02*
X7269643Y-13159929D01*
X7255357Y-13131357D01*
X7255357Y-12874214D01*
X7526786Y-13159929D02*
X7498214Y-13174214D01*
X7441071Y-13174214D01*
X7412500Y-13159929D01*
X7398214Y-13131357D01*
X7398214Y-13017071D01*
X7412500Y-12988500D01*
X7441071Y-12974214D01*
X7498214Y-12974214D01*
X7526786Y-12988500D01*
X7541071Y-13017071D01*
X7541071Y-13045643D01*
X7398214Y-13074214D01*
X7655357Y-13159929D02*
X7683928Y-13174214D01*
X7741071Y-13174214D01*
X7769643Y-13159929D01*
X7783928Y-13131357D01*
X7783928Y-13117071D01*
X7769643Y-13088500D01*
X7741071Y-13074214D01*
X7698214Y-13074214D01*
X7669643Y-13059929D01*
X7655357Y-13031357D01*
X7655357Y-13017071D01*
X7669643Y-12988500D01*
X7698214Y-12974214D01*
X7741071Y-12974214D01*
X7769643Y-12988500D01*
X7883928Y-13288500D02*
X7898214Y-13274214D01*
X7926786Y-13231357D01*
X7941071Y-13202786D01*
X7955357Y-13159929D01*
X7969643Y-13088500D01*
X7969643Y-13031357D01*
X7955357Y-12959929D01*
X7941071Y-12917071D01*
X7926786Y-12888500D01*
X7898214Y-12845643D01*
X7883928Y-12831357D01*
M02*
