%TF.GenerationSoftware,KiCad,Pcbnew,5.1.6-c6e7f7d~87~ubuntu20.04.1*%
%TF.CreationDate,2020-10-11T03:01:43+02:00*%
%TF.ProjectId,10A-Bias-T,3130412d-4269-4617-932d-542e6b696361,rev?*%
%TF.SameCoordinates,Original*%
%TF.FileFunction,Soldermask,Top*%
%TF.FilePolarity,Negative*%
%FSLAX46Y46*%
G04 Gerber Fmt 4.6, Leading zero omitted, Abs format (unit mm)*
G04 Created by KiCad (PCBNEW 5.1.6-c6e7f7d~87~ubuntu20.04.1) date 2020-10-11 03:01:43*
%MOMM*%
%LPD*%
G01*
G04 APERTURE LIST*
%ADD10C,2.300000*%
%ADD11C,1.600000*%
%ADD12C,1.700000*%
%ADD13R,2.100000X2.100000*%
%ADD14O,2.100000X2.100000*%
%ADD15C,3.600000*%
%ADD16C,2.500000*%
%ADD17C,0.100000*%
%ADD18C,2.200000*%
%ADD19R,2.200000X2.200000*%
%ADD20C,2.900000*%
%ADD21R,1.450000X1.450000*%
%ADD22O,1.450000X1.450000*%
%ADD23C,2.100000*%
G04 APERTURE END LIST*
D10*
%TO.C,REF\u002A\u002A*%
X190500000Y-92500000D03*
%TD*%
%TO.C,REF\u002A\u002A*%
X99000000Y-93000000D03*
%TD*%
D11*
%TO.C,REF\u002A\u002A*%
X105000000Y-94000000D03*
%TD*%
%TO.C,REF\u002A\u002A*%
X105000000Y-96000000D03*
%TD*%
%TO.C,REF\u002A\u002A*%
X105000000Y-92000000D03*
%TD*%
%TO.C,REF\u002A\u002A*%
X105000000Y-82000000D03*
%TD*%
%TO.C,REF\u002A\u002A*%
X105000000Y-86000000D03*
%TD*%
%TO.C,REF\u002A\u002A*%
X105000000Y-88000000D03*
%TD*%
%TO.C,REF\u002A\u002A*%
X105000000Y-84000000D03*
%TD*%
%TO.C,REF\u002A\u002A*%
X105000000Y-78000000D03*
%TD*%
%TO.C,REF\u002A\u002A*%
X105000000Y-90000000D03*
%TD*%
%TO.C,REF\u002A\u002A*%
X105000000Y-80000000D03*
%TD*%
%TO.C,REF\u002A\u002A*%
X105000000Y-76000000D03*
%TD*%
%TO.C,REF\u002A\u002A*%
X105000000Y-74000000D03*
%TD*%
%TO.C,REF\u002A\u002A*%
X105000000Y-66000000D03*
%TD*%
%TO.C,REF\u002A\u002A*%
X105000000Y-68000000D03*
%TD*%
%TO.C,REF\u002A\u002A*%
X105000000Y-70000000D03*
%TD*%
%TO.C,REF\u002A\u002A*%
X105000000Y-62000000D03*
%TD*%
%TO.C,REF\u002A\u002A*%
X105000000Y-72000000D03*
%TD*%
%TO.C,REF\u002A\u002A*%
X105000000Y-58000000D03*
%TD*%
%TO.C,REF\u002A\u002A*%
X105000000Y-56000000D03*
%TD*%
%TO.C,REF\u002A\u002A*%
X105000000Y-64000000D03*
%TD*%
%TO.C,REF\u002A\u002A*%
X105000000Y-60000000D03*
%TD*%
%TO.C,REF\u002A\u002A*%
X105000000Y-54000000D03*
%TD*%
%TO.C,REF\u002A\u002A*%
X105000000Y-52000000D03*
%TD*%
%TO.C,REF\u002A\u002A*%
X105000000Y-50000000D03*
%TD*%
%TO.C,REF\u002A\u002A*%
X105000000Y-48000000D03*
%TD*%
%TO.C,REF\u002A\u002A*%
X105000000Y-46000000D03*
%TD*%
%TO.C,REF\u002A\u002A*%
X105000000Y-44000000D03*
%TD*%
%TO.C,REF\u002A\u002A*%
X105000000Y-42000000D03*
%TD*%
%TO.C,REF\u002A\u002A*%
X105000000Y-40000000D03*
%TD*%
%TO.C,REF\u002A\u002A*%
X105000000Y-38000000D03*
%TD*%
%TO.C,REF\u002A\u002A*%
X105000000Y-36000000D03*
%TD*%
D12*
%TO.C,C4*%
X80500000Y-72500000D03*
X80500000Y-67500000D03*
%TD*%
%TO.C,C5*%
X80500000Y-64500000D03*
X80500000Y-62000000D03*
%TD*%
%TO.C,C6*%
X86500000Y-67500000D03*
X86500000Y-72500000D03*
%TD*%
%TO.C,C10*%
X177000000Y-64500000D03*
X177000000Y-59500000D03*
%TD*%
%TO.C,C11*%
X177000000Y-67500000D03*
X177000000Y-70000000D03*
%TD*%
%TO.C,C12*%
X183000000Y-59500000D03*
X183000000Y-64500000D03*
%TD*%
D13*
%TO.C,D1*%
X99000000Y-53500000D03*
D14*
X99000000Y-58580000D03*
%TD*%
%TO.C,D2*%
X191500000Y-59080000D03*
D13*
X191500000Y-54000000D03*
%TD*%
D15*
%TO.C,F1*%
X81500000Y-53000000D03*
D16*
X86100000Y-54200000D03*
D15*
X90700000Y-53000000D03*
%TD*%
D17*
%TO.C,J1*%
G36*
X46909755Y-35650961D02*
G01*
X46919134Y-35653806D01*
X46927779Y-35658427D01*
X46935355Y-35664645D01*
X46941573Y-35672221D01*
X46946194Y-35680866D01*
X46949039Y-35690245D01*
X46950000Y-35700000D01*
X46950000Y-43800000D01*
X46949039Y-43809755D01*
X46946194Y-43819134D01*
X46941573Y-43827779D01*
X46935355Y-43835355D01*
X46927779Y-43841573D01*
X46919134Y-43846194D01*
X46909755Y-43849039D01*
X46900000Y-43850000D01*
X41900000Y-43850000D01*
X41890245Y-43849039D01*
X41880866Y-43846194D01*
X41872221Y-43841573D01*
X41864645Y-43835355D01*
X41858427Y-43827779D01*
X41853806Y-43819134D01*
X41850961Y-43809755D01*
X41850000Y-43800000D01*
X41850000Y-35700000D01*
X41850961Y-35690245D01*
X41853806Y-35680866D01*
X41858427Y-35672221D01*
X41864645Y-35664645D01*
X41872221Y-35658427D01*
X41880866Y-35653806D01*
X41890245Y-35650961D01*
X41900000Y-35650000D01*
X46900000Y-35650000D01*
X46909755Y-35650961D01*
G37*
G36*
X21109755Y-35400961D02*
G01*
X21119134Y-35403806D01*
X21127779Y-35408427D01*
X21135355Y-35414645D01*
X21141573Y-35422221D01*
X21146194Y-35430866D01*
X21149039Y-35440245D01*
X21150000Y-35450000D01*
X21150000Y-43550000D01*
X21149039Y-43559755D01*
X21146194Y-43569134D01*
X21141573Y-43577779D01*
X21135355Y-43585355D01*
X21127779Y-43591573D01*
X21119134Y-43596194D01*
X21109755Y-43599039D01*
X21100000Y-43600000D01*
X16100000Y-43600000D01*
X16090245Y-43599039D01*
X16080866Y-43596194D01*
X16072221Y-43591573D01*
X16064645Y-43585355D01*
X16058427Y-43577779D01*
X16053806Y-43569134D01*
X16050961Y-43559755D01*
X16050000Y-43550000D01*
X16050000Y-35450000D01*
X16050961Y-35440245D01*
X16053806Y-35430866D01*
X16058427Y-35422221D01*
X16064645Y-35414645D01*
X16072221Y-35408427D01*
X16080866Y-35403806D01*
X16090245Y-35400961D01*
X16100000Y-35400000D01*
X21100000Y-35400000D01*
X21109755Y-35400961D01*
G37*
G36*
X34009755Y-35400961D02*
G01*
X34019134Y-35403806D01*
X34027779Y-35408427D01*
X34035355Y-35414645D01*
X34041573Y-35422221D01*
X34046194Y-35430866D01*
X34049039Y-35440245D01*
X34050000Y-35450000D01*
X34050000Y-43550000D01*
X34049039Y-43559755D01*
X34046194Y-43569134D01*
X34041573Y-43577779D01*
X34035355Y-43585355D01*
X34027779Y-43591573D01*
X34019134Y-43596194D01*
X34009755Y-43599039D01*
X34000000Y-43600000D01*
X29000000Y-43600000D01*
X28990245Y-43599039D01*
X28980866Y-43596194D01*
X28972221Y-43591573D01*
X28964645Y-43585355D01*
X28958427Y-43577779D01*
X28953806Y-43569134D01*
X28950961Y-43559755D01*
X28950000Y-43550000D01*
X28950000Y-35450000D01*
X28950961Y-35440245D01*
X28953806Y-35430866D01*
X28958427Y-35422221D01*
X28964645Y-35414645D01*
X28972221Y-35408427D01*
X28980866Y-35403806D01*
X28990245Y-35400961D01*
X29000000Y-35400000D01*
X34000000Y-35400000D01*
X34009755Y-35400961D01*
G37*
%TD*%
D18*
%TO.C,J2*%
X98500000Y-67040000D03*
D19*
X98500000Y-64500000D03*
%TD*%
D17*
%TO.C,J3*%
G36*
X34009755Y-88400961D02*
G01*
X34019134Y-88403806D01*
X34027779Y-88408427D01*
X34035355Y-88414645D01*
X34041573Y-88422221D01*
X34046194Y-88430866D01*
X34049039Y-88440245D01*
X34050000Y-88450000D01*
X34050000Y-96550000D01*
X34049039Y-96559755D01*
X34046194Y-96569134D01*
X34041573Y-96577779D01*
X34035355Y-96585355D01*
X34027779Y-96591573D01*
X34019134Y-96596194D01*
X34009755Y-96599039D01*
X34000000Y-96600000D01*
X29000000Y-96600000D01*
X28990245Y-96599039D01*
X28980866Y-96596194D01*
X28972221Y-96591573D01*
X28964645Y-96585355D01*
X28958427Y-96577779D01*
X28953806Y-96569134D01*
X28950961Y-96559755D01*
X28950000Y-96550000D01*
X28950000Y-88450000D01*
X28950961Y-88440245D01*
X28953806Y-88430866D01*
X28958427Y-88422221D01*
X28964645Y-88414645D01*
X28972221Y-88408427D01*
X28980866Y-88403806D01*
X28990245Y-88400961D01*
X29000000Y-88400000D01*
X34000000Y-88400000D01*
X34009755Y-88400961D01*
G37*
G36*
X21109755Y-88400961D02*
G01*
X21119134Y-88403806D01*
X21127779Y-88408427D01*
X21135355Y-88414645D01*
X21141573Y-88422221D01*
X21146194Y-88430866D01*
X21149039Y-88440245D01*
X21150000Y-88450000D01*
X21150000Y-96550000D01*
X21149039Y-96559755D01*
X21146194Y-96569134D01*
X21141573Y-96577779D01*
X21135355Y-96585355D01*
X21127779Y-96591573D01*
X21119134Y-96596194D01*
X21109755Y-96599039D01*
X21100000Y-96600000D01*
X16100000Y-96600000D01*
X16090245Y-96599039D01*
X16080866Y-96596194D01*
X16072221Y-96591573D01*
X16064645Y-96585355D01*
X16058427Y-96577779D01*
X16053806Y-96569134D01*
X16050961Y-96559755D01*
X16050000Y-96550000D01*
X16050000Y-88450000D01*
X16050961Y-88440245D01*
X16053806Y-88430866D01*
X16058427Y-88422221D01*
X16064645Y-88414645D01*
X16072221Y-88408427D01*
X16080866Y-88403806D01*
X16090245Y-88400961D01*
X16100000Y-88400000D01*
X21100000Y-88400000D01*
X21109755Y-88400961D01*
G37*
G36*
X46909755Y-88650961D02*
G01*
X46919134Y-88653806D01*
X46927779Y-88658427D01*
X46935355Y-88664645D01*
X46941573Y-88672221D01*
X46946194Y-88680866D01*
X46949039Y-88690245D01*
X46950000Y-88700000D01*
X46950000Y-96800000D01*
X46949039Y-96809755D01*
X46946194Y-96819134D01*
X46941573Y-96827779D01*
X46935355Y-96835355D01*
X46927779Y-96841573D01*
X46919134Y-96846194D01*
X46909755Y-96849039D01*
X46900000Y-96850000D01*
X41900000Y-96850000D01*
X41890245Y-96849039D01*
X41880866Y-96846194D01*
X41872221Y-96841573D01*
X41864645Y-96835355D01*
X41858427Y-96827779D01*
X41853806Y-96819134D01*
X41850961Y-96809755D01*
X41850000Y-96800000D01*
X41850000Y-88700000D01*
X41850961Y-88690245D01*
X41853806Y-88680866D01*
X41858427Y-88672221D01*
X41864645Y-88664645D01*
X41872221Y-88658427D01*
X41880866Y-88653806D01*
X41890245Y-88650961D01*
X41900000Y-88650000D01*
X46900000Y-88650000D01*
X46909755Y-88650961D01*
G37*
%TD*%
%TO.C,J4*%
G36*
X139809755Y-35650961D02*
G01*
X139819134Y-35653806D01*
X139827779Y-35658427D01*
X139835355Y-35664645D01*
X139841573Y-35672221D01*
X139846194Y-35680866D01*
X139849039Y-35690245D01*
X139850000Y-35700000D01*
X139850000Y-43800000D01*
X139849039Y-43809755D01*
X139846194Y-43819134D01*
X139841573Y-43827779D01*
X139835355Y-43835355D01*
X139827779Y-43841573D01*
X139819134Y-43846194D01*
X139809755Y-43849039D01*
X139800000Y-43850000D01*
X134800000Y-43850000D01*
X134790245Y-43849039D01*
X134780866Y-43846194D01*
X134772221Y-43841573D01*
X134764645Y-43835355D01*
X134758427Y-43827779D01*
X134753806Y-43819134D01*
X134750961Y-43809755D01*
X134750000Y-43800000D01*
X134750000Y-35700000D01*
X134750961Y-35690245D01*
X134753806Y-35680866D01*
X134758427Y-35672221D01*
X134764645Y-35664645D01*
X134772221Y-35658427D01*
X134780866Y-35653806D01*
X134790245Y-35650961D01*
X134800000Y-35650000D01*
X139800000Y-35650000D01*
X139809755Y-35650961D01*
G37*
G36*
X114009755Y-35400961D02*
G01*
X114019134Y-35403806D01*
X114027779Y-35408427D01*
X114035355Y-35414645D01*
X114041573Y-35422221D01*
X114046194Y-35430866D01*
X114049039Y-35440245D01*
X114050000Y-35450000D01*
X114050000Y-43550000D01*
X114049039Y-43559755D01*
X114046194Y-43569134D01*
X114041573Y-43577779D01*
X114035355Y-43585355D01*
X114027779Y-43591573D01*
X114019134Y-43596194D01*
X114009755Y-43599039D01*
X114000000Y-43600000D01*
X109000000Y-43600000D01*
X108990245Y-43599039D01*
X108980866Y-43596194D01*
X108972221Y-43591573D01*
X108964645Y-43585355D01*
X108958427Y-43577779D01*
X108953806Y-43569134D01*
X108950961Y-43559755D01*
X108950000Y-43550000D01*
X108950000Y-35450000D01*
X108950961Y-35440245D01*
X108953806Y-35430866D01*
X108958427Y-35422221D01*
X108964645Y-35414645D01*
X108972221Y-35408427D01*
X108980866Y-35403806D01*
X108990245Y-35400961D01*
X109000000Y-35400000D01*
X114000000Y-35400000D01*
X114009755Y-35400961D01*
G37*
G36*
X126909755Y-35400961D02*
G01*
X126919134Y-35403806D01*
X126927779Y-35408427D01*
X126935355Y-35414645D01*
X126941573Y-35422221D01*
X126946194Y-35430866D01*
X126949039Y-35440245D01*
X126950000Y-35450000D01*
X126950000Y-43550000D01*
X126949039Y-43559755D01*
X126946194Y-43569134D01*
X126941573Y-43577779D01*
X126935355Y-43585355D01*
X126927779Y-43591573D01*
X126919134Y-43596194D01*
X126909755Y-43599039D01*
X126900000Y-43600000D01*
X121900000Y-43600000D01*
X121890245Y-43599039D01*
X121880866Y-43596194D01*
X121872221Y-43591573D01*
X121864645Y-43585355D01*
X121858427Y-43577779D01*
X121853806Y-43569134D01*
X121850961Y-43559755D01*
X121850000Y-43550000D01*
X121850000Y-35450000D01*
X121850961Y-35440245D01*
X121853806Y-35430866D01*
X121858427Y-35422221D01*
X121864645Y-35414645D01*
X121872221Y-35408427D01*
X121880866Y-35403806D01*
X121890245Y-35400961D01*
X121900000Y-35400000D01*
X126900000Y-35400000D01*
X126909755Y-35400961D01*
G37*
%TD*%
D19*
%TO.C,J5*%
X191000000Y-64500000D03*
D18*
X191000000Y-67040000D03*
%TD*%
D17*
%TO.C,J6*%
G36*
X126909755Y-88400961D02*
G01*
X126919134Y-88403806D01*
X126927779Y-88408427D01*
X126935355Y-88414645D01*
X126941573Y-88422221D01*
X126946194Y-88430866D01*
X126949039Y-88440245D01*
X126950000Y-88450000D01*
X126950000Y-96550000D01*
X126949039Y-96559755D01*
X126946194Y-96569134D01*
X126941573Y-96577779D01*
X126935355Y-96585355D01*
X126927779Y-96591573D01*
X126919134Y-96596194D01*
X126909755Y-96599039D01*
X126900000Y-96600000D01*
X121900000Y-96600000D01*
X121890245Y-96599039D01*
X121880866Y-96596194D01*
X121872221Y-96591573D01*
X121864645Y-96585355D01*
X121858427Y-96577779D01*
X121853806Y-96569134D01*
X121850961Y-96559755D01*
X121850000Y-96550000D01*
X121850000Y-88450000D01*
X121850961Y-88440245D01*
X121853806Y-88430866D01*
X121858427Y-88422221D01*
X121864645Y-88414645D01*
X121872221Y-88408427D01*
X121880866Y-88403806D01*
X121890245Y-88400961D01*
X121900000Y-88400000D01*
X126900000Y-88400000D01*
X126909755Y-88400961D01*
G37*
G36*
X114009755Y-88400961D02*
G01*
X114019134Y-88403806D01*
X114027779Y-88408427D01*
X114035355Y-88414645D01*
X114041573Y-88422221D01*
X114046194Y-88430866D01*
X114049039Y-88440245D01*
X114050000Y-88450000D01*
X114050000Y-96550000D01*
X114049039Y-96559755D01*
X114046194Y-96569134D01*
X114041573Y-96577779D01*
X114035355Y-96585355D01*
X114027779Y-96591573D01*
X114019134Y-96596194D01*
X114009755Y-96599039D01*
X114000000Y-96600000D01*
X109000000Y-96600000D01*
X108990245Y-96599039D01*
X108980866Y-96596194D01*
X108972221Y-96591573D01*
X108964645Y-96585355D01*
X108958427Y-96577779D01*
X108953806Y-96569134D01*
X108950961Y-96559755D01*
X108950000Y-96550000D01*
X108950000Y-88450000D01*
X108950961Y-88440245D01*
X108953806Y-88430866D01*
X108958427Y-88422221D01*
X108964645Y-88414645D01*
X108972221Y-88408427D01*
X108980866Y-88403806D01*
X108990245Y-88400961D01*
X109000000Y-88400000D01*
X114000000Y-88400000D01*
X114009755Y-88400961D01*
G37*
G36*
X139809755Y-88650961D02*
G01*
X139819134Y-88653806D01*
X139827779Y-88658427D01*
X139835355Y-88664645D01*
X139841573Y-88672221D01*
X139846194Y-88680866D01*
X139849039Y-88690245D01*
X139850000Y-88700000D01*
X139850000Y-96800000D01*
X139849039Y-96809755D01*
X139846194Y-96819134D01*
X139841573Y-96827779D01*
X139835355Y-96835355D01*
X139827779Y-96841573D01*
X139819134Y-96846194D01*
X139809755Y-96849039D01*
X139800000Y-96850000D01*
X134800000Y-96850000D01*
X134790245Y-96849039D01*
X134780866Y-96846194D01*
X134772221Y-96841573D01*
X134764645Y-96835355D01*
X134758427Y-96827779D01*
X134753806Y-96819134D01*
X134750961Y-96809755D01*
X134750000Y-96800000D01*
X134750000Y-88700000D01*
X134750961Y-88690245D01*
X134753806Y-88680866D01*
X134758427Y-88672221D01*
X134764645Y-88664645D01*
X134772221Y-88658427D01*
X134780866Y-88653806D01*
X134790245Y-88650961D01*
X134800000Y-88650000D01*
X139800000Y-88650000D01*
X139809755Y-88650961D01*
G37*
%TD*%
D20*
%TO.C,L1*%
X43500000Y-66000000D03*
X72710000Y-66000000D03*
%TD*%
%TO.C,L2*%
X167710000Y-66000000D03*
X138500000Y-66000000D03*
%TD*%
D21*
%TO.C,LA1*%
X86500000Y-62500000D03*
D22*
X86500000Y-64500000D03*
%TD*%
%TO.C,LA2*%
X183000000Y-68500000D03*
D21*
X183000000Y-70500000D03*
%TD*%
D23*
%TO.C,C1*%
X124500000Y-66000000D03*
X124500000Y-58500000D03*
%TD*%
%TO.C,C2*%
X31500000Y-66000000D03*
X31500000Y-58500000D03*
%TD*%
M02*
